<?xml version="1.0" encoding="utf-8"?>
<svg viewBox="0 0 500 500" xmlns="http://www.w3.org/2000/svg" xmlnsbx="https://boxy-svg.com">
  <defs>
    <bxGrid x="692.792" y="-166.937" width="100" height="100"/>
  </defs>
  <path fill="#26B9EF" opacity="1.000000" stroke="none" d="M 382.88 157.837 C 381.584 150.055 380.662 142.177 378.93 134.506 C 365.83 76.455 317.32 31.694 261.75 26.168 C 186.105 18.647 121.475 74.51 112.892 154.831 C 112.82 155.51 112.727 156.187 112.387 157.025 C 111.861 157.09 111.593 156.993 111.324 156.897 C 111.297 157.025 111.245 157.153 111.245 157.281 C 111.244 165.068 111.235 172.856 111.3 180.642 C 111.302 180.903 112.046 181.157 112.444 181.415 C 114.218 196.65 117.28 211.535 123.072 225.681 C 124.4 228.925 125.746 232.161 127.076 235.383 C 126.84 235.53 126.744 235.59 126.648 235.65 C 126.665 235.519 126.743 235.336 126.69 235.265 C 125.778 234.051 124.654 232.967 123.953 231.632 C 114.107 212.879 108.391 192.778 106.927 170.767 C 107.239 166.8 107.435 163.445 107.363 160.097 C 107.267 155.722 106.959 151.351 106.743 146.979 C 108.911 115.471 119.477 87.402 138.476 63.254 C 166.761 27.303 203.374 9.002 247.397 8.481 C 316.408 7.664 376.182 61.971 387.101 134.788 C 392.261 169.206 386.789 201.659 370.946 232.151 C 370.27 233.453 369.392 234.636 368.183 235.621 C 376.201 218.272 380.884 200.047 382.809 180.905 C 383.123 181.323 383.233 181.769 383.342 182.214 C 383.445 182.184 383.548 182.154 383.651 182.125 C 383.651 173.443 383.651 164.762 383.651 156.081 C 383.534 156.062 383.417 156.044 383.3 156.026 C 383.16 156.629 383.02 157.233 382.88 157.837 Z" style=""/>
  <path fill="#E2229C" opacity="1.000000" stroke="none" d="M 195.672 241.644 C 199.419 253.1 203.096 264.222 206.953 275.884 C 199.38 265.117 193.634 253.87 188.996 241.94 C 187.969 239.298 186.89 236.633 185.478 234.215 C 183.308 230.501 180.448 229.939 177.467 232.958 C 174.606 235.856 172.278 239.348 169.712 242.576 C 164.662 248.927 159.666 255.33 154.517 261.59 C 153.244 263.138 151.468 264.22 149.614 265.194 C 160.344 250.962 165.991 235.089 164.789 216.835 C 163.778 201.49 158.427 187.658 151.118 174.604 C 142.711 159.589 135.887 143.929 133.133 126.538 C 132.882 124.953 132.672 123.361 133.197 121.443 C 133.583 122.53 134.026 123.598 134.345 124.706 C 139.823 143.762 149.472 160.03 164.073 172.531 C 168.831 176.604 174.837 179.112 180.466 181.894 C 181.753 182.531 183.947 181.625 185.539 180.944 C 191.577 178.361 197.79 176.068 203.473 172.764 C 213.538 166.913 223.637 161.292 234.794 158.16 C 236.129 157.785 237.518 157.635 238.995 157.591 C 207.203 175.449 185.61 199.138 195.672 241.644 Z" style=""/>
  <path fill="#21C7B7" opacity="1.000000" stroke="none" d="M 290.458 277.505 C 294.639 266.235 299.376 255.155 302.847 243.643 C 306.445 231.705 307.485 219.23 304.413 206.865 C 300.636 191.665 291.525 180.251 280.069 170.982 C 273.823 165.928 266.819 161.932 260 157.354 C 261.667 157.66 263.387 157.818 265.022 158.3 C 276.256 161.609 286.567 167.104 296.54 173.407 C 299.075 175.01 301.689 176.487 304.332 177.883 C 314.767 183.395 324.458 181.98 333.442 174.235 C 348.978 160.841 359.54 143.939 365.159 123.541 C 365.338 122.892 365.534 122.247 365.747 121.61 C 365.774 121.529 365.949 121.505 366.768 121.117 C 366.171 124.996 365.81 128.495 365.078 131.904 C 361.873 146.827 355.955 160.557 348.59 173.638 C 341.259 186.66 335.753 200.381 334.488 215.701 C 333.071 232.85 337.746 248.062 347.461 261.664 C 348.157 262.639 348.871 263.598 349.241 265.111 C 348.484 264.632 347.562 264.312 346.997 263.649 C 341.409 257.092 335.83 250.525 330.357 243.86 C 327.744 240.677 325.573 237.065 322.83 234.026 C 318.736 229.489 315.435 230.129 312.681 235.998 C 309.131 243.566 306.214 251.487 302.394 258.889 C 299.137 265.199 294.99 270.99 290.982 277.254 C 290.726 277.498 290.458 277.505 290.458 277.505 Z" style=""/>
  <path fill="#E2249C" opacity="1.000000" stroke="none" d="M 266.441 304.454 C 274.532 306.489 282.188 309.462 288.129 316.027 C 301.473 330.77 296.339 350.45 277.786 355.612 C 275.81 356.162 273.758 356.457 271.723 356.709 C 269.859 356.94 267.971 356.951 265.468 357.095 C 273.736 366.685 280.718 376.868 290.527 384.045 C 293.192 385.995 296.454 387.278 299.618 388.125 C 302.168 388.807 304.597 389.014 304.479 392.538 C 304.365 395.937 302.696 398.591 299.45 398.692 C 296.451 398.786 293.256 398.229 290.434 397.129 C 281.441 393.623 275.221 386.214 268.919 379 C 263.678 373 258.666 366.749 253.129 361.077 C 250.698 358.587 247.212 357.26 243.34 354.871 C 243.83 368.338 244.286 380.302 244.69 392.268 C 244.845 396.86 243.579 398.72 240.294 399.024 C 236.859 399.341 234.609 397.402 234.321 393.728 C 234.128 391.282 234.103 388.822 234.271 385.739 C 234.54 378.5 234.54 371.889 234.54 364.344 C 234.061 366.333 233.813 367.36 233.566 368.387 C 233.441 366.182 233.317 363.977 233.461 361.159 C 233.825 348.022 233.948 335.499 234.008 322.975 C 234.053 313.592 234.017 313.592 225.299 314.553 C 225.299 314.553 225.334 314.38 225.306 314.227 C 225.02 313.94 224.761 313.806 224.502 313.672 C 224.502 313.672 224.701 313.655 224.684 313.297 C 224.602 311.119 224.536 309.299 224.471 307.479 C 224.471 307.479 224.576 307.436 224.761 307.448 C 225.064 307.182 225.183 306.903 225.301 306.625 C 225.301 306.625 225.237 306.716 225.565 306.735 C 237.151 302.691 248.669 303.026 260.264 304.382 C 262.301 304.62 264.381 304.441 266.441 304.454 M 243.805 340.517 C 244.298 342.252 242.903 344.692 245.858 345.484 C 255.557 348.087 265.306 349.538 275.063 346.248 C 284.052 343.216 286.953 334.317 281.438 326.158 C 279.441 323.204 276.434 320.208 273.302 319.1 C 266.066 316.538 258.495 315 251.008 313.311 C 248.855 312.825 246.522 313.236 244.355 313.236 C 244.037 315.327 243.815 316.794 243.352 317.829 C 243.232 317.198 243.111 316.568 242.99 315.937 C 242.891 315.945 242.793 315.953 242.694 315.961 C 242.694 325.203 242.694 334.446 242.694 343.688 C 242.791 343.7 242.887 343.713 242.984 343.725 C 243.172 342.445 243.36 341.166 243.805 340.517 Z" style=""/>
  <path fill="#24C8B8" opacity="1.000000" stroke="none" d="M 51.845 308.442 C 43.883 308.473 35.92 308.504 27.341 308.757 C 26.598 316.184 26.441 323.387 26.401 330.591 C 26.398 331.158 27.212 331.73 27.646 332.3 C 27.871 334.855 28.095 337.41 28.353 340.339 C 30.037 340.493 31.659 340.641 33.395 341.041 C 32.919 341.42 32.328 341.547 31.736 341.674 C 31.744 341.769 31.751 341.865 31.759 341.961 C 40.208 341.961 48.658 341.961 57.108 341.961 C 57.111 341.868 57.115 341.775 57.118 341.682 C 56.163 341.47 55.208 341.258 54.253 341.046 C 61.289 340.477 68.324 339.895 75.362 339.358 C 76.12 339.3 77.062 339.227 77.63 339.626 C 79.335 340.824 81.771 341.982 82.236 343.677 C 82.603 345.013 80.78 347.517 79.358 348.77 C 78.099 349.879 76.067 350.392 74.351 350.458 C 60.237 351.004 46.118 351.506 31.996 351.718 C 28.979 351.763 28.05 352.238 28.226 355.715 C 28.814 367.3 28.999 378.907 29.579 391.157 C 37.375 391.942 44.929 392.106 52.484 392.151 C 53.016 392.154 53.552 391.281 54.086 390.815 C 55.795 390.753 57.508 390.748 59.212 390.618 C 66.245 390.082 73.269 389.277 80.309 389.065 C 83.099 388.981 86.302 390.071 86.314 393.986 C 86.326 397.548 83.715 399.421 80.743 399.697 C 73.724 400.349 66.672 400.623 59.629 400.937 C 48.737 401.423 37.844 401.9 26.948 402.213 C 20.775 402.391 19.573 401.218 18.51 394.869 C 18.219 393.128 18.099 391.355 18.136 388.992 C 18.447 377.91 18.556 367.432 18.538 356.955 C 18.537 356.141 17.655 355.328 17.183 354.515 C 17.141 353.354 17.099 352.194 17.325 350.438 C 17.676 341.302 17.76 332.761 17.794 324.219 C 17.794 324.162 17.091 324.102 16.716 324.043 C 16.45 319.306 16.184 314.568 15.899 309.502 C 15.199 309.502 14.485 309.483 13.771 309.505 C 10.671 309.604 8.233 308.355 8.052 304.868 C 7.88 301.564 9.501 298.923 12.869 298.565 C 18.74 297.942 24.637 297.271 30.526 297.25 C 45.306 297.195 60.088 297.501 74.87 297.641 C 77.658 297.667 80.114 298.397 80.879 301.597 C 81.603 304.623 80.389 306.912 77.239 308.134 C 70.778 307.881 64.827 307.731 58.876 307.765 C 56.531 307.778 54.188 308.204 51.845 308.442 Z" style=""/>
  <path fill="#8FC64A" opacity="1.000000" stroke="none" d="M 147.616 316.826 C 149.199 312.746 150.311 308.723 152.316 305.29 C 153.423 303.395 156.05 301.43 157.955 301.47 C 159.508 301.503 161.74 304.191 162.406 306.179 C 166.326 317.882 169.868 329.728 173.555 341.519 C 174.324 343.981 175.137 346.43 175.984 348.863 C 178.863 357.124 178.872 357.12 187.207 356.938 C 191.844 356.837 194.89 358.593 195.242 361.571 C 195.618 364.739 192.815 367.275 188.089 368.025 C 186.956 368.204 185.816 368.334 184.141 368.558 C 184.621 370.133 184.909 371.528 185.457 372.796 C 187.599 377.758 189.815 382.684 192.023 387.613 C 192.52 388.722 193.114 389.781 193.633 390.879 C 195.995 395.889 195.94 400.38 193.512 401.755 C 190.729 403.331 185.979 400.38 183.835 395.575 C 180.312 387.68 176.722 379.811 173.499 371.778 C 172.337 368.881 170.894 368 168.052 368.12 C 160.347 368.446 152.626 368.345 144.923 368.704 C 143.623 368.765 141.749 369.957 141.218 371.163 C 137.634 379.312 134.333 387.602 130.96 395.855 C 130.604 396.728 130.466 397.707 130.076 398.559 C 128.685 401.595 126.298 402.583 123.347 401.748 C 120.42 400.921 119.452 398.347 120.187 395.642 C 121.645 390.282 123.479 385.027 125.348 379.806 C 126.62 376.251 128.216 372.827 129.745 369.157 C 127.966 368.465 126.091 368.176 124.796 367.1 C 123.636 366.137 122.243 364.055 122.532 362.922 C 122.898 361.487 124.852 360.501 126.15 359.357 C 126.314 359.212 126.666 359.21 126.902 359.271 C 133.558 360.993 135.374 356.415 136.985 350.962 C 140.334 339.63 143.989 328.4 147.616 316.826 M 166.441 354.649 C 163.45 344.368 160.459 334.087 157.175 322.799 C 153.459 334.942 150.032 346.141 146.279 358.403 C 153.007 358.081 159.066 357.848 165.112 357.408 C 165.675 357.367 166.154 356.016 166.441 354.649 Z" style=""/>
  <path fill="#EA6C34" opacity="1.000000" stroke="none" d="M 455.607 399.042 C 443.111 401.234 437.274 396.769 435.46 383.903 C 435.137 381.609 435.024 379.282 434.685 376.992 C 434.273 374.205 435.054 372.417 437.905 372.178 C 443.307 371.725 445.233 372.886 445.493 376.656 C 445.644 378.832 445.631 381.055 446.078 383.165 C 447.41 389.447 452.646 391.19 457.147 386.792 C 461.722 382.32 463.996 376.377 466.153 370.159 C 465.143 369.472 464.322 368.867 463.46 368.337 C 454.268 362.689 447.227 354.907 443.214 344.402 C 439.058 333.526 435.221 322.513 431.289 311.541 C 430.933 310.547 430.738 309.419 430.748 308.356 C 430.783 305.02 432.495 302.969 435.507 302.342 C 438.531 301.713 440.226 303.297 441.279 306.329 C 445.016 317.088 448.748 327.855 452.798 338.482 C 456.168 347.322 461.633 354.358 470.82 359.119 C 472.72 349.341 474.517 340.026 476.341 330.718 C 477.939 322.568 479.552 314.421 481.19 306.281 C 481.95 302.5 484.468 301.96 487.385 302.96 C 490.218 303.931 492.622 305.544 491.794 309.46 C 488.557 324.775 485.324 340.091 482.068 355.401 C 481.701 357.131 481.006 358.806 480.828 360.548 C 480.716 361.638 480.951 363.148 481.609 363.883 C 484.946 367.604 484.249 371.951 479.516 373.089 C 476.326 373.856 475.277 375.806 474.08 378.505 C 470.141 387.388 465.674 395.86 455.607 399.042 Z" style=""/>
  <path fill="#91C650" opacity="1.000000" stroke="none" d="M 290.093 277.556 C 290.458 277.505 290.726 277.498 290.86 277.513 C 290.993 277.528 291.157 277.74 291.348 278.172 C 297.274 278.74 303.009 278.957 308.744 278.972 C 310.848 278.978 312.952 278.505 315.056 278.251 C 330.066 278.342 345.077 278.391 360.087 278.544 C 366.747 278.612 373.405 278.89 380.507 279.486 C 387.809 279.9 394.668 279.899 401.527 279.898 C 409.669 280.231 417.812 280.565 425.955 280.899 C 425.937 281.594 425.918 282.29 425.9 282.986 C 410.808 283.586 395.715 284.187 380.03 284.501 C 369.093 284.214 358.747 284.214 348.402 284.214 C 348.399 284.3 348.396 284.385 348.393 284.47 C 350.633 284.682 352.874 284.893 355.114 285.105 C 340.994 285.381 326.876 285.837 312.755 285.898 C 275.23 286.062 237.703 286.07 200.178 286.103 C 193.626 286.109 187.074 285.937 180.592 285.66 C 185.561 285.473 190.46 285.473 195.359 285.473 C 187.844 284.796 180.333 284.753 172.822 284.829 C 171.101 284.846 169.383 285.275 167.663 285.514 C 158.649 285.461 149.634 285.407 140.549 285.088 C 142.559 284.822 144.642 284.822 146.724 284.822 C 136.632 283.967 126.556 283.958 116.481 283.997 C 116.038 283.999 115.596 284.436 115.154 284.67 C 102.999 284.3 90.842 284.013 78.692 283.504 C 75.367 283.365 72.067 282.558 68.675 281.732 C 76.647 280.649 84.682 279.727 93.404 280.081 C 100.215 280.457 106.433 280.581 112.652 280.58 C 113.198 280.579 113.744 279.759 114.29 279.32 C 116.147 279.206 118.004 279.093 120.439 279.266 C 129.527 279.644 138.038 279.759 146.55 279.772 C 147.117 279.773 147.686 279.002 148.254 278.59 C 158.847 278.427 169.44 278.264 180.618 278.398 C 189.535 278.8 197.866 278.922 206.197 278.971 C 206.735 278.974 207.276 278.407 207.816 278.106 C 208.154 278.097 208.492 278.088 209.299 278.392 C 210.399 278.8 211.029 278.977 211.659 278.978 C 231.199 279.003 250.74 279.014 270.281 279.011 C 270.746 279.011 271.212 278.834 271.678 278.739 C 263.416 278.304 255.202 278.329 246.989 278.298 C 238.766 278.266 230.543 278.179 222.32 278.117 C 223.835 277.96 225.35 277.671 226.866 277.668 C 247.82 277.625 268.774 277.621 290.093 277.556 Z" style=""/>
  <path fill="#FCB82F" opacity="1.000000" stroke="none" d="M 338.272 306.101 C 339.773 304.75 341.274 302.326 342.776 302.325 C 344.58 302.323 346.385 304.385 347.975 306.092 C 347.76 314.607 347.76 322.582 347.76 331.396 C 348.15 329.986 348.319 329.374 348.488 328.763 C 349.709 348.532 350.93 368.301 352.351 388.722 C 362.482 389.723 372.414 390.071 382.346 390.42 C 384.798 390.027 387.249 389.634 389.97 389.198 C 389.97 385.644 389.663 381.864 390.102 378.185 C 390.314 376.405 391.582 374.26 392.989 373.268 C 394.942 371.891 397.394 371.855 398.847 375.03 C 398.632 382.383 398.569 389.187 398.506 395.991 C 396.496 397.24 394.608 398.969 392.439 399.596 C 390.487 400.16 388.225 399.516 385.971 399.143 C 386.446 398.763 387.052 398.643 387.657 398.524 C 387.654 398.34 387.652 398.156 387.649 397.972 C 387.104 397.972 386.558 397.972 386.012 397.972 C 373.734 397.972 361.455 397.972 349.176 397.972 C 349.163 398.14 349.15 398.308 349.137 398.475 C 349.712 398.649 350.287 398.823 350.863 398.997 C 347.468 399.541 343.834 401.305 341.628 396.354 C 341.845 385.623 341.845 375.439 341.845 364.734 C 341.408 365.746 341.197 366.233 340.986 366.72 C 340.075 354.95 339.163 343.18 338.507 330.784 C 338.845 324.356 339.003 318.553 338.973 312.751 C 338.961 310.533 338.518 308.318 338.272 306.101 Z" style=""/>
  <path fill="#2EBAF0" opacity="1.000000" stroke="none" d="M 423.547 434.461 C 427.365 440.26 431.019 445.818 434.673 451.375 C 435.009 451.253 435.345 451.132 435.681 451.011 C 435.475 448.445 435.197 445.884 435.078 443.314 C 434.771 436.638 434.47 429.959 434.327 423.278 C 434.3 422.01 435.013 420.725 435.384 419.448 C 435.859 419.389 436.334 419.329 436.809 419.27 C 437.586 421.058 438.953 422.814 439.044 424.641 C 439.591 435.676 439.895 446.726 440.132 457.774 C 440.16 459.069 439.278 460.386 438.819 461.692 C 437.582 460.992 435.923 460.621 435.177 459.538 C 429.498 451.291 423.991 442.909 418.45 434.555 C 417.651 433.35 416.955 432.068 415.616 429.826 C 415.404 431.862 415.214 432.807 415.221 433.75 C 415.281 441.655 415.498 449.563 415.354 457.464 C 415.327 458.928 413.884 460.362 413.095 461.81 C 412.3 460.359 410.838 458.92 410.815 457.456 C 410.64 446.275 410.695 435.088 410.826 423.905 C 410.843 422.46 411.703 421.026 412.173 419.587 C 413.484 420.447 415.196 420.998 416.03 422.224 C 418.659 426.086 420.957 430.202 423.547 434.461 Z" style=""/>
  <path fill="#27B9EF" opacity="1.000000" stroke="none" d="M 234.199 436.378 C 235.333 445.171 232.402 451.683 225.639 456.159 C 219.929 459.937 213.628 461.488 206.906 461.294 C 203.856 461.205 202.602 459.819 202.665 456.481 C 202.832 447.628 202.862 438.767 202.689 429.915 C 202.664 428.592 201.251 427.3 200.484 425.991 C 199.973 425.12 199.028 424.208 199.089 423.383 C 199.146 422.62 200.185 421.494 200.96 421.304 C 209.212 419.282 217.534 418.516 225.484 422.365 C 230.818 424.948 233.17 430.108 234.199 436.378 M 225.552 428.692 C 220.188 423.72 213.857 424.149 207.611 424.558 C 207.611 435.322 207.611 445.609 207.611 457.143 C 212.39 455.797 216.704 455.179 220.532 453.389 C 230.348 448.798 232.562 438.168 225.552 428.692 Z" style=""/>
  <path fill="#E2229C" opacity="1.000000" stroke="none" d="M 197.785 161.541 C 196.059 164.576 194.863 167.836 192.67 169.901 C 185.885 176.288 176.791 172.719 175.172 163.248 C 173.999 156.384 175.866 150.497 181.021 146.093 C 184.495 143.125 188.524 142.416 192.561 144.696 C 197.203 147.318 198.414 152.015 198.439 157.177 C 198.446 158.524 198.063 159.872 197.785 161.541 Z" style=""/>
  <path fill="#21C7B7" opacity="1.000000" stroke="none" d="M 317.784 172.234 C 311.187 174.065 305.965 171.505 302.796 165.155 C 299.558 158.668 300.34 150.129 304.581 146.101 C 307.297 143.522 310.576 142.784 313.947 143.857 C 320.197 145.847 323.16 150.941 324.205 157.436 C 325.225 163.778 323.005 168.874 317.784 172.234 Z" style=""/>
  <path fill="#27B9EF" opacity="1.000000" stroke="none" d="M 248.226 454.132 C 248.971 452.348 249.578 450.842 250.286 449.089 C 249.69 448.666 249.003 448.34 248.532 447.801 C 248.047 447.244 247.323 446.244 247.502 445.859 C 247.836 445.143 248.806 444.21 249.414 444.283 C 252.659 444.673 253.174 442.197 253.921 439.859 C 255.737 434.169 257.449 428.437 259.471 422.831 C 259.996 421.378 261.508 420.328 262.567 419.093 C 263.531 420.384 264.881 421.523 265.392 422.992 C 267.438 428.883 269.132 434.913 271.192 440.798 C 271.567 441.869 272.957 442.694 274.044 443.29 C 275.579 444.131 277.269 444.653 278.893 445.312 C 277.631 446.577 276.369 447.843 274.594 449.623 C 275.595 451.86 277.127 454.69 278.107 457.722 C 278.588 459.212 278.045 461.075 277.965 462.768 C 276.602 461.757 274.777 461.05 273.971 459.67 C 272.289 456.789 271.318 453.444 269.694 450.516 C 269.073 449.397 267.517 448.361 266.295 448.226 C 263.761 447.946 261.119 448.015 258.616 448.494 C 257.235 448.758 255.549 449.838 254.87 451.085 C 253.338 453.899 252.508 457.137 251.056 460.011 C 250.464 461.184 249 461.86 247.933 462.762 C 247.51 461.393 246.727 460.015 246.761 458.659 C 246.797 457.231 247.613 455.826 248.226 454.132 M 261.431 444.627 C 263.176 444.248 264.922 443.869 266.76 443.471 C 265.325 438.322 264.106 433.948 262.541 428.334 C 260.828 433.816 259.393 438.102 258.266 442.478 C 258.152 442.919 259.895 443.899 261.431 444.627 Z" style=""/>
  <path fill="#27B9EF" opacity="1.000000" stroke="none" d="M 473.969 456.259 C 477.488 453.161 477.937 450.226 474.993 447.145 C 472.647 444.689 469.695 442.89 467.038 440.764 C 464.692 438.887 462.071 437.261 460.127 434.987 C 457.078 431.42 457.007 426.389 459.378 422.86 C 461.353 419.92 465.299 418.881 469.55 420.407 C 471.354 421.055 473.025 422.121 474.029 422.629 C 475.23 421.412 476.205 420.423 477.181 419.434 C 477.958 420.73 479.203 421.946 479.412 423.337 C 479.813 426.009 479.731 428.784 479.628 431.507 C 479.59 432.516 478.931 433.498 478.555 434.492 C 477.65 433.74 476.212 433.162 475.936 432.206 C 474.87 428.508 472.796 425.73 469.403 424.765 C 467.608 424.254 464.762 424.478 463.594 425.685 C 461.644 427.7 462.371 430.793 464.388 432.615 C 467.004 434.977 469.992 436.896 472.912 438.851 C 476.914 441.53 480.53 444.483 481.577 449.779 C 482.466 454.279 480.733 458.733 476.797 460.298 C 469.1 463.359 457.404 461.502 454.862 449.432 C 454.521 447.813 455.244 445.94 455.474 444.185 C 456.001 444.107 456.527 444.028 457.053 443.949 C 457.756 445.194 458.724 446.351 459.119 447.698 C 461.308 455.166 466.405 458.272 473.969 456.259 Z" style=""/>
  <path fill="#27B9EF" opacity="1.000000" stroke="none" d="M 394.728 431.614 C 397.178 439.824 397.054 447.281 392.566 454.594 C 385.688 465.801 374.221 463.406 368.475 454.412 C 361.68 443.777 365.698 425.287 376.425 420.846 C 380.23 419.271 383.248 418.958 385.95 421.331 C 389.207 424.191 391.769 427.944 394.728 431.614 M 383.286 424.977 C 381.714 425.042 379.933 424.615 378.602 425.25 C 369.238 429.716 366.73 445.647 373.947 454.059 C 378.026 458.815 383.656 458.666 387.57 453.701 C 394.388 445.051 392.694 432.252 383.286 424.977 Z" style=""/>
  <path fill="#26B9EF" opacity="1.000000" stroke="none" d="M 89.585 456.981 C 83.433 463.637 75.79 463.733 69.714 457.457 C 58.977 446.366 63.767 424.289 78.054 419.448 C 79.346 419.011 81.13 419.521 82.488 420.106 C 94.583 425.314 99.074 441.641 91.818 453.799 C 91.203 454.831 90.451 455.772 89.585 456.981 M 90.51 441.859 C 90.245 435.62 88.523 430.109 83.73 426.035 C 81.439 424.088 79.219 423.99 76.645 425.471 C 67.02 431.012 65.708 448.712 74.46 455.72 C 77.89 458.467 82.281 458.227 85.282 454.947 C 88.414 451.525 90.448 447.508 90.51 441.859 Z" style=""/>
  <path fill="#2EBAF0" opacity="1.000000" stroke="none" d="M 184.691 461.425 C 184.225 461.559 183.759 461.693 183.082 461.439 C 182.609 460.86 182.346 460.667 182.083 460.474 C 182.083 460.474 182.169 460.494 182.111 460.291 C 181.806 459.94 181.558 459.792 181.311 459.645 C 181.311 459.645 181.396 459.589 181.335 459.407 C 181.013 459.072 180.752 458.918 180.491 458.765 C 174.947 450.504 169.404 442.243 163.86 433.982 C 162.978 432.668 162.095 431.355 160.708 430.243 C 160.203 436.25 160.203 442.057 160.203 448.819 C 160.581 446.581 160.798 445.295 161.016 444.009 C 161.092 448.764 161.343 453.528 161.126 458.268 C 161.07 459.483 159.539 460.621 158.685 461.794 C 157.986 460.44 156.744 459.111 156.687 457.726 C 156.485 452.832 156.688 447.919 157.023 442.39 C 157.397 439.759 157.485 437.751 157.577 435.744 C 157.821 430.39 158.067 425.037 158.313 419.684 C 159.709 420.837 161.474 421.716 162.442 423.186 C 167.962 431.566 173.281 440.094 178.7 448.549 C 179.318 449.514 180.134 450.336 181.253 451.707 C 180.831 441.158 180.437 431.307 180.575 421.185 C 182.046 420.907 182.987 420.899 183.927 420.892 C 183.927 420.892 183.875 420.93 183.865 421.287 C 183.846 426.612 183.837 431.581 183.901 436.686 C 184.181 436.713 184.387 436.605 184.706 436.472 C 184.818 436.446 185.046 436.471 185.046 436.471 C 185.167 437.365 185.289 438.258 185.149 439.737 C 184.822 447.356 184.756 454.39 184.691 461.425 Z" style=""/>
  <path fill="#32BBF0" opacity="1.000000" stroke="none" d="M 22.749 434.96 C 22.518 431.173 22.288 427.386 22.053 423.517 C 21.74 423.366 21.372 423.256 21.076 423.037 C 20.023 422.261 18.995 421.448 17.957 420.649 C 19.027 419.829 20.089 418.995 21.175 418.2 C 21.37 418.057 21.669 418.029 21.921 418.026 C 29.748 417.935 37.575 417.793 45.401 417.839 C 46.593 417.845 48.193 418.388 48.86 419.299 C 49.619 420.337 49.545 422.065 49.833 423.493 C 48.605 423.41 47.346 423.478 46.16 423.2 C 45.111 422.953 44.152 421.947 43.139 421.921 C 37.897 421.786 32.65 421.858 26.805 421.858 C 27.188 427.81 27.525 433.029 27.919 439.144 C 33.474 439.144 38.946 439.276 44.407 439.074 C 46.394 439.001 48.367 438.83 48.341 441.371 C 48.332 442.233 46.123 443.739 44.869 443.801 C 39.385 444.07 33.882 443.917 27.706 443.917 C 27.706 449.162 27.765 454.162 27.686 459.159 C 27.627 462.842 26.807 463.278 23.594 461.149 C 23.839 452.773 23.962 444.932 23.962 437.091 C 23.962 436.381 23.172 435.67 22.749 434.96 Z" style=""/>
  <path fill="#FCB82B" opacity="1.000000" stroke="none" d="M 242.827 59.58 C 242.947 55.698 242.84 52.125 243.431 48.687 C 243.777 46.672 244.815 44.245 246.294 43.134 C 248.211 41.694 251.047 40.461 253.163 40.901 C 254.607 41.201 256.309 44.432 256.497 46.495 C 257.433 56.801 254.275 66.348 250.822 75.763 C 250.179 77.516 249.251 79.15 248.454 80.839 C 248.027 80.902 247.599 80.965 247.171 81.027 C 245.745 74 244.319 66.973 242.827 59.58 Z" style=""/>
  <path fill="#27B9EF" opacity="1.000000" stroke="none" d="M 116.46 448.798 C 117.096 449.97 117.582 451.278 118.396 452.287 C 120.752 455.204 123.637 457.22 127.442 456.428 C 131.125 455.663 133.278 452.668 133.983 449.165 C 134.884 444.693 135.093 440.03 135.256 435.435 C 135.399 431.371 135.102 427.286 134.935 423.213 C 134.862 421.439 134.326 419.416 136.969 419.419 C 139.251 419.421 140.11 420.85 139.894 423.166 C 139.831 423.84 139.869 424.524 139.585 425.803 C 139.453 432.776 139.597 439.149 139.741 445.522 C 139.085 448.122 138.791 450.908 137.703 453.285 C 134.924 459.355 129.885 462.505 124.879 461.807 C 118.445 460.91 112.668 456.198 112.058 449.575 C 111.2 440.257 111.491 430.819 111.838 421.173 C 114.601 420.68 115.181 421.88 115.154 424.058 C 115.068 431.075 115.059 438.096 115.184 445.112 C 115.206 446.349 116.015 447.57 116.46 448.798 Z" style=""/>
  <path fill="#FCB82B" opacity="1.000000" stroke="none" d="M 312.689 89.425 C 310.051 91.68 307.592 93.713 305.132 95.747 C 305.692 85.953 307.503 76.998 312.134 69.137 C 313.805 66.302 316.527 63.718 319.334 62.197 C 323.146 60.131 326.272 62.866 324.715 67.051 C 322.296 73.556 318.781 79.607 315.616 85.785 C 314.956 87.073 313.796 88.073 312.689 89.425 Z" style=""/>
  <path fill="#FCB82B" opacity="1.000000" stroke="none" d="M 194.59 85.455 C 191.46 81.664 188.381 78.194 185.675 74.421 C 184.572 72.883 183.588 70.599 183.796 68.818 C 184.047 66.672 185.174 63.902 186.761 62.896 C 188.13 62.028 190.848 62.838 192.644 63.685 C 194.022 64.335 195.071 66.078 195.957 67.545 C 200.291 74.721 201.737 82.74 202.226 92.13 C 199.274 89.558 197.032 87.606 194.59 85.455 Z" style=""/>
  <path fill="#2EBAF0" opacity="1.000000" stroke="none" d="M 343.459 456.993 C 345.741 457.231 348.02 457.542 350.308 457.683 C 352.146 457.796 352.151 457.704 351.042 460.124 C 347.536 460.334 344.468 460.382 341.402 460.318 C 338.585 460.259 335.771 460.079 332.956 459.953 C 333.262 458.54 333.489 458.117 333.787 458.051 C 339.778 456.715 339.781 456.723 339.788 450.152 C 339.791 447.843 339.905 445.524 339.728 443.231 C 339.66 442.355 338.92 441.537 338.486 440.692 C 338.206 435.297 337.926 429.901 337.633 424.253 C 335.875 424.253 334.341 424.466 332.899 424.173 C 332.022 423.995 331.286 423.034 330.487 422.425 C 331.115 421.542 331.702 419.934 332.377 419.892 C 337.732 419.556 343.108 419.368 348.466 419.529 C 349.415 419.557 350.515 421.3 351.142 422.491 C 351.404 422.99 350.702 424.759 350.283 424.824 C 349.298 424.979 348.223 424.43 347.176 424.211 C 345.901 423.944 344.617 423.724 342.896 423.4 C 342.896 428.247 342.896 432.436 342.631 437.252 C 342.279 443.563 342.146 449.248 342.167 454.933 C 342.17 455.621 343.008 456.306 343.459 456.993 Z" style=""/>
  <path fill="#FCB82B" opacity="1.000000" stroke="none" d="M 144.362 102.44 C 150.482 106.684 159.265 117.38 162.778 124.843 C 155.134 122.376 147.909 119.664 141.875 114.404 C 140.183 112.928 138.708 110.709 138 108.516 C 136.534 103.973 139.532 101.103 144.362 102.44 Z" style=""/>
  <path fill="#32BBF0" opacity="1.000000" stroke="none" d="M 315.908 423.825 C 312.103 423.984 308.299 424.143 303.861 424.452 C 303.061 425.652 302.756 426.7 302.751 427.75 C 302.712 436.345 302.704 444.94 302.76 453.535 C 302.768 454.691 303.185 455.844 303.412 456.999 C 303.378 457.932 303.67 459.134 303.231 459.734 C 302.574 460.633 301.424 461.552 300.444 461.601 C 299.851 461.631 298.716 460.077 298.646 459.164 C 298.484 457.042 298.82 454.877 299.331 452.297 C 299.704 447.036 299.699 442.208 299.694 437.381 C 299.655 436.222 299.616 435.063 299.861 433.328 C 299.82 430.191 299.497 427.631 299.173 425.07 C 295.823 424.812 292.462 424.652 289.129 424.243 C 287.908 424.093 286.751 423.35 285.566 422.878 C 286.249 421.74 286.931 420.602 287.964 419.829 C 289.501 420.442 290.686 420.895 291.876 420.907 C 298.88 420.979 305.885 421.003 312.889 420.918 C 314.914 420.893 316.105 421.439 315.908 423.825 Z" style=""/>
  <path fill="#FCB82B" opacity="1.000000" stroke="none" d="M 358.961 107.932 C 361.764 110.179 359.7 112.322 358.649 113.549 C 356.537 116.016 354.041 118.337 351.294 119.914 C 346.948 122.409 342.265 124.244 336.827 126.776 C 337.445 124.759 337.548 123.685 338.05 122.898 C 343.096 114.982 348.895 108.179 358.961 107.932 Z" style=""/>
  <path fill="#2C2C2C" opacity="1.000000" stroke="none" d="M 100.908 481.71 C 100.207 481.878 99.254 482.281 99.141 482.865 C 98.63 485.53 98.355 488.247 97.995 490.945 C 97.519 490.858 97.043 490.771 96.567 490.684 C 97.272 485.293 97.977 479.902 98.827 473.401 C 101.286 478.613 103.251 482.779 105.485 487.514 C 107.694 482.8 109.617 478.696 112.034 473.537 C 112.934 479.855 113.693 485.187 114.451 490.518 C 114.009 490.638 113.566 490.757 113.123 490.877 C 112.524 487.517 111.926 484.158 111.107 479.562 C 109.052 483.878 107.43 487.285 105.51 491.318 C 103.865 487.896 102.454 484.963 100.908 481.71 Z" style=""/>
  <path fill="#262727" opacity="1.000000" stroke="none" d="M 402.125 487.213 C 402.047 488.624 401.968 489.706 401.89 490.787 C 401.581 490.779 401.273 490.77 400.964 490.761 C 400.964 485.353 400.964 479.945 400.964 474.192 C 404.066 474.639 408.063 472.149 410.149 476.928 C 411.372 479.731 409.968 481.625 405.636 483.663 C 407.208 485.924 408.758 488.152 410.307 490.38 C 409.967 490.706 409.627 491.033 409.287 491.359 C 407.14 488.656 404.992 485.953 402.366 482.648 C 402.255 484.602 402.19 485.742 402.125 487.213 M 406.7 481.23 C 407.277 479.963 407.854 478.695 408.43 477.428 C 406.49 476.683 404.55 475.938 402.099 474.996 C 402.099 477.004 402.055 477.801 402.11 478.589 C 402.174 479.491 402.325 480.385 402.447 481.351 C 403.796 481.351 404.927 481.351 406.7 481.23 Z" style=""/>
  <path fill="#1F2020" opacity="1.000000" stroke="none" d="M 138.658 479.522 C 141.224 474.116 145.214 472.292 149.762 474.206 C 153.798 475.904 155.894 480.819 154.531 485.391 C 153.246 489.702 148.719 492.157 144.26 490.961 C 139.683 489.734 137.599 485.656 138.658 479.522 M 145.812 489.635 C 146.812 489.485 147.874 489.516 148.8 489.153 C 152.348 487.758 154.041 484 152.918 480.264 C 151.871 476.779 148.259 474.513 145.085 475.351 C 141.601 476.271 138.86 480.12 140.11 483.684 C 140.923 486 143.461 487.632 145.812 489.635 Z" style=""/>
  <path fill="#262727" opacity="1.000000" stroke="none" d="M 483.713 490.788 C 481.305 488.333 479.114 485.854 476.514 482.912 C 476.377 485.858 476.265 488.288 476.152 490.718 C 475.851 490.714 475.55 490.711 475.248 490.707 C 475.248 485.308 475.248 479.909 475.248 474.436 C 481.183 473.42 483.716 474.113 484.457 477.23 C 485.397 481.178 482.934 482.53 480.077 483.326 C 481.405 485.89 482.667 488.327 483.713 490.788 M 478.966 475.656 C 473.996 475.705 476.992 479.139 476.509 481.093 C 476.808 481.485 477.107 481.876 477.406 482.267 C 479.24 481.128 481.073 479.989 482.907 478.849 C 481.828 477.8 480.748 476.752 478.966 475.656 Z" style=""/>
  <path fill="#1F2020" opacity="1.000000" stroke="none" d="M 467.306 480.6 C 467.843 485.32 466.416 488.718 462.541 490.603 C 459.232 492.211 454.901 491.139 452.726 488.267 C 450.305 485.068 450.063 481.544 451.886 477.963 C 453.509 474.772 456.28 473.287 459.552 473.555 C 463.444 473.873 466.269 476.023 467.306 480.6 M 465.484 484.768 C 467.449 477.692 460.517 473.679 456.697 475.745 C 453.77 477.327 451.732 479.86 452.694 483.162 C 453.385 485.533 455.351 488.256 457.413 489.228 C 460.707 490.78 463.525 488.737 465.484 484.768 Z" style=""/>
  <path fill="#262727" opacity="1.000000" stroke="none" d="M 265.242 491.231 C 259.234 489.152 256.847 484.646 258.654 479.313 C 260.241 474.626 265.121 472.344 269.684 474.153 C 273.216 475.554 275.475 479.656 274.899 483.626 C 274.194 488.494 271.028 491.085 265.242 491.231 M 260.422 479.488 C 259.125 482.591 259.494 485.697 262.044 487.505 C 263.815 488.761 266.536 489.417 268.623 489.039 C 271.639 488.493 273.219 485.709 273.216 482.402 C 273.213 479.074 271.481 476.76 268.576 475.659 C 265.169 474.367 262.663 475.978 260.422 479.488 Z" style=""/>
  <path fill="#262727" opacity="1.000000" stroke="none" d="M 239.724 483.251 C 239.722 479.964 239.722 477.065 239.722 474.167 C 240.155 474.147 240.587 474.127 241.02 474.107 C 241.186 476.208 241.353 478.31 241.543 480.707 C 243.992 480.707 246.464 480.707 249.192 480.707 C 249.306 478.51 249.421 476.303 249.535 474.097 C 250.033 474.109 250.532 474.121 251.03 474.133 C 251.232 479.67 251.092 485.217 251.127 490.758 C 250.636 490.794 250.145 490.83 249.655 490.866 C 249.487 488.22 249.32 485.574 249.148 482.86 C 246.655 482.86 244.258 482.86 241.528 482.86 C 241.395 485.57 241.267 488.163 241.139 490.757 C 240.668 490.755 240.197 490.754 239.726 490.752 C 239.726 488.381 239.726 486.011 239.724 483.251 Z" style=""/>
  <path fill="#1F2020" opacity="1.000000" stroke="none" d="M 294.231 474.931 C 297.482 477.407 298.54 480.511 297.812 484.358 C 297.17 487.749 295.287 489.92 292.186 490.882 C 288.431 492.047 284.77 490.698 282.689 487.435 C 280.718 484.345 280.938 479.678 283.194 476.745 C 285.698 473.489 289.279 472.84 294.231 474.931 M 293.7 476.804 C 291.673 476.405 289.499 475.316 287.652 475.76 C 284.496 476.52 282.895 479.276 283.014 482.808 C 283.128 486.193 284.968 488.408 287.887 489.368 C 291.127 490.433 293.749 488.936 295.409 486.05 C 297.222 482.897 296.711 479.814 293.7 476.804 Z" style=""/>
  <path fill="#1F2020" opacity="1.000000" stroke="none" d="M 358.476 476.613 C 361.012 480.346 361.175 484.008 358.933 487.516 C 356.864 490.753 353.77 491.879 350.16 491.051 C 346.669 490.251 344.495 487.828 343.84 484.193 C 343.16 480.423 344.301 477.172 347.421 474.992 C 350.922 472.546 354.213 473.006 358.476 476.613 M 357.058 477.707 C 354.732 475.309 351.799 473.938 349.171 476.187 C 347.336 477.757 345.557 480.78 345.633 483.084 C 345.702 485.164 347.981 487.708 349.904 489.036 C 352.443 490.79 355.18 489.475 357.074 487.137 C 359.329 484.354 359.509 481.263 357.058 477.707 Z" style=""/>
  <path fill="#1F2020" opacity="1.000000" stroke="none" d="M 121.673 489.305 C 121.674 484.17 121.674 479.397 121.674 474.636 C 127.37 473.279 130.744 474.106 131.379 477.199 C 132.157 480.994 130.142 482.733 126.362 483.171 C 128.206 485.821 129.806 488.12 131.406 490.419 C 131.103 490.708 130.801 490.997 130.498 491.286 C 128.289 488.612 126.079 485.938 123.135 482.376 C 123.135 485.377 123.167 487.34 123.072 489.295 C 123.065 489.444 122.16 489.543 121.673 489.305 M 123.204 480.705 C 125.166 480.583 127.152 480.596 129.066 480.208 C 129.394 480.141 129.759 477.615 129.523 477.492 C 127.67 476.528 125.675 475.872 123.099 474.881 C 123.099 477.386 123.099 478.704 123.204 480.705 Z" style=""/>
  <path fill="#1F2020" opacity="1.000000" stroke="none" d="M 224.946 473.513 C 227.764 474.353 230.266 475.228 232.768 476.104 C 232.624 476.604 232.48 477.104 232.336 477.604 C 231.757 477.49 231.08 477.542 230.614 477.235 C 226.428 474.481 223.26 474.607 220.583 477.716 C 218.335 480.327 218.275 484.391 220.443 487.038 C 223.055 490.226 226.4 490.482 230.425 487.84 C 230.901 487.527 231.475 487.382 232.004 487.16 C 232.184 487.612 232.364 488.064 232.545 488.517 C 230.508 489.439 228.538 490.843 226.42 491.172 C 223.245 491.666 220.327 490.587 218.472 487.419 C 215.072 481.615 217.749 475.574 224.946 473.513 Z" style=""/>
  <path fill="#1A1A1A" opacity="1.000000" stroke="none" d="M 80.707 477.195 C 80.553 481.615 80.49 481.697 75.968 483.551 C 77.598 485.846 79.167 488.054 80.736 490.261 C 80.442 490.558 80.149 490.855 79.855 491.151 C 77.681 488.553 75.506 485.955 72.557 482.431 C 72.557 485.877 72.557 488.341 72.557 490.804 C 72.189 490.795 71.821 490.785 71.453 490.776 C 71.453 485.378 71.453 479.98 71.453 474.171 C 74.47 474.734 78.332 472.218 80.707 477.195 M 77.718 476.052 C 76.131 475.907 74.543 475.763 72.912 475.615 C 72.912 477.824 72.912 479.528 72.912 482.082 C 75.166 481.283 77.054 480.802 78.709 479.859 C 79.017 479.684 78.39 477.656 77.718 476.052 Z" style=""/>
  <path fill="#262727" opacity="1.000000" stroke="none" d="M 178.095 474.102 C 180.951 474.072 183.465 474.072 185.978 474.072 C 186.019 474.479 186.06 474.886 186.101 475.292 C 183.685 475.526 181.269 475.76 178.76 476.003 C 178.76 477.523 178.76 478.863 178.76 480.463 C 181.22 480.705 183.681 480.947 186.142 481.189 C 186.124 481.573 186.107 481.956 186.09 482.34 C 183.761 482.34 181.432 482.34 178.88 482.34 C 178.88 484.746 178.88 486.71 178.88 488.834 C 181.286 489.009 183.715 489.186 186.143 489.363 C 186.14 489.701 186.138 490.039 186.135 490.377 C 183.225 490.377 180.314 490.377 176.69 490.377 C 177.035 485.11 177.394 479.621 178.095 474.102 Z" style=""/>
  <path fill="#E2229C" opacity="1.000000" stroke="none" d="M 225.449 314.794 C 234.017 313.592 234.053 313.592 234.008 322.975 C 233.948 335.499 233.825 348.022 233.509 360.791 C 233.028 348.502 232.76 335.966 232.518 323.431 C 232.466 320.716 232.51 317.999 232.51 315.035 C 230.031 315.035 227.815 315.035 225.449 314.794 Z" style=""/>
  <path fill="#262727" opacity="1.000000" stroke="none" d="M 53.905 475.731 C 56.539 475.156 59.232 474.522 61.769 474.945 C 62.59 475.081 63.718 478.123 63.469 479.602 C 62.693 484.214 58.699 482.48 55.737 483.304 C 55.585 485.76 55.428 488.289 55.272 490.818 C 54.816 490.808 54.36 490.798 53.904 490.789 C 53.904 485.887 53.904 480.985 53.905 475.731 M 55.495 477.873 C 55.578 479.032 55.662 480.191 55.828 482.517 C 58.297 481.228 60.134 480.385 61.785 479.24 C 61.97 479.112 61.13 476.387 60.715 476.372 C 58.99 476.306 57.245 476.817 55.495 477.873 Z" style=""/>
  <path fill="#1A1A1A" opacity="1.000000" stroke="none" d="M 376.113 481.786 C 373.781 482.462 371.692 482.938 369.385 483.463 C 369.255 485.74 369.111 488.275 368.967 490.81 C 368.625 490.797 368.283 490.784 367.942 490.771 C 367.942 485.299 367.942 479.827 367.942 473.363 C 370.939 474.238 373.983 474.788 376.648 476.167 C 377.238 476.473 376.489 479.703 376.113 481.786 M 369.226 476.434 C 369.226 478.01 369.226 479.586 369.226 482.179 C 371.669 481.289 373.597 480.72 375.376 479.822 C 375.717 479.649 375.697 477.495 375.473 477.415 C 373.562 476.726 371.566 476.305 369.226 476.434 Z" style=""/>
  <path fill="#EA6C34" opacity="1.000000" stroke="none" d="M 219.476 122.476 C 218.66 120.37 217.931 118.595 217.24 116.914 C 218.863 115.681 220.857 114.166 222.688 112.775 C 224.11 113.962 225.933 115.486 227.774 117.025 C 227.208 118.776 226.415 121.228 225.693 123.46 C 223.866 123.265 221.714 123.036 219.476 122.476 Z" style=""/>
  <path fill="#1F2020" opacity="1.000000" stroke="none" d="M 202.42 487.203 C 203.951 487.982 205.178 489.368 206.465 489.435 C 208.482 489.539 209.308 486.67 207.85 484.819 C 206.876 483.584 205.334 482.806 204.519 481.492 C 203.546 479.925 202.654 478.025 202.577 476.227 C 202.541 475.388 204.518 473.709 205.556 473.731 C 207.167 473.766 208.756 474.931 210.355 475.617 C 210.129 476.111 209.902 476.606 209.676 477.1 C 208.865 476.631 208.092 475.915 207.23 475.761 C 206.357 475.606 204.739 475.783 204.609 476.212 C 204.321 477.162 204.407 478.68 204.976 479.394 C 206.198 480.926 208.19 481.847 209.168 483.489 C 210.004 484.892 210.487 487.206 209.965 488.641 C 209.518 489.872 207.331 491.245 206.089 491.079 C 204.486 490.864 203.057 489.178 201.553 488.126 C 201.75 487.823 201.946 487.521 202.42 487.203 Z" style=""/>
  <path fill="#1A1A1A" opacity="1.000000" stroke="none" d="M 428.91 484.451 C 429.845 486.633 430.649 488.541 431.74 491.129 C 427.995 490.06 428.742 484.885 424.134 484.88 C 419.504 484.874 419.925 489.504 417.412 491.034 C 417.148 490.805 416.883 490.575 416.618 490.345 C 418.999 484.967 421.379 479.588 424.069 473.508 C 425.837 477.514 427.308 480.846 428.91 484.451 M 425.531 483.793 C 425.268 481.936 425.005 480.078 424.742 478.22 C 424.382 478.268 424.022 478.316 423.662 478.363 C 422.962 480.021 422.261 481.68 421.428 483.653 C 422.912 483.727 423.917 483.778 425.531 483.793 Z" style=""/>
  <path fill="#1A1A1A" opacity="1.000000" stroke="none" d="M 32.818 485.518 C 27.662 483.8 25.036 486.858 23.197 491.528 C 22.883 491.168 22.57 490.807 22.257 490.447 C 24.634 485.063 27.011 479.679 29.736 473.507 C 32.419 479.596 34.811 485.025 37.203 490.455 C 36.872 490.665 36.542 490.875 36.211 491.084 C 35.175 489.29 34.14 487.495 32.818 485.518 M 28.947 479.116 C 28.383 480.561 27.82 482.005 27.182 483.643 C 29.039 483.643 30.517 483.643 32.947 483.643 C 31.456 481.599 30.373 480.115 28.947 479.116 Z" style=""/>
  <path fill="#1F2020" opacity="1.000000" stroke="none" d="M 163.777 476.027 C 163.912 477.547 164.067 479 164.759 480.054 C 165.464 481.127 167.078 481.6 167.614 482.707 C 168.475 484.484 169.445 486.724 169.084 488.468 C 168.836 489.67 166.39 491.137 164.975 491.082 C 163.37 491.02 161.818 489.393 160.242 488.446 C 160.512 487.989 160.781 487.531 161.051 487.074 C 161.68 487.514 162.262 488.195 162.947 488.343 C 164.26 488.627 165.63 488.61 166.977 488.717 C 166.803 487.183 166.982 485.453 166.353 484.171 C 165.748 482.936 164.021 482.353 163.309 481.138 C 162.441 479.658 161.636 477.78 161.748 476.147 C 161.813 475.198 163.767 473.641 164.805 473.698 C 166.384 473.785 167.905 475.036 169.451 475.793 C 169.305 476.094 169.16 476.396 169.014 476.698 C 167.353 476.393 165.692 476.089 163.777 476.027 Z" style=""/>
  <path fill="#1A1A1A" opacity="1.000000" stroke="none" d="M 321.068 479.111 C 322.733 480.653 324.619 481.702 325.531 483.357 C 326.377 484.892 326.86 487.394 326.239 488.872 C 325.719 490.112 323.332 491.171 321.857 491.056 C 320.403 490.944 319.058 489.256 317.665 488.26 C 317.95 487.869 318.234 487.478 318.519 487.086 C 319.323 487.748 320.054 488.773 320.951 488.979 C 322.017 489.224 323.645 489.182 324.253 488.493 C 324.843 487.822 324.884 485.901 324.39 485.02 C 323.642 483.683 321.993 482.938 321.148 481.634 C 320.149 480.091 319.173 478.257 319.033 476.474 C 318.964 475.604 320.83 473.757 321.792 473.778 C 323.495 473.815 325.177 474.941 327.128 475.715 C 325.051 478.551 320.053 470.794 321.068 479.111 Z" style=""/>
  <path fill="#1F2020" opacity="1.000000" stroke="none" d="M 391.127 474.082 C 392.215 474.23 392.976 474.379 393.737 474.527 C 393.725 474.819 393.713 475.11 393.702 475.402 C 391.366 475.402 389.031 475.402 386.459 475.402 C 386.459 477.317 386.459 478.755 386.459 480.505 C 388.776 480.721 391.253 480.952 393.73 481.183 C 393.715 481.558 393.7 481.933 393.685 482.309 C 391.363 482.309 389.04 482.309 386.474 482.309 C 386.474 484.704 386.474 486.655 386.474 488.906 C 388.866 489.043 391.269 489.181 393.673 489.319 C 393.665 489.672 393.657 490.024 393.649 490.377 C 390.752 490.377 387.855 490.377 384.749 490.377 C 384.749 485.216 384.749 479.821 384.749 474.082 C 386.744 474.082 388.772 474.082 391.127 474.082 Z" style=""/>
  <path fill="#E2229C" opacity="1.000000" stroke="none" d="M 266.18 304.326 C 264.381 304.441 262.301 304.62 260.264 304.382 C 248.669 303.026 237.151 302.691 225.585 306.682 C 228.244 305.484 231.136 303.8 234.192 303.334 C 244.782 301.717 255.406 301.399 266.18 304.326 Z" style=""/>
  <path fill="#2C2C2C" opacity="1.000000" stroke="none" d="M 441.689 477.096 C 441.678 481.644 441.678 485.822 441.678 490.001 C 441.332 490.023 440.987 490.045 440.641 490.068 C 439.145 485.636 440.761 480.826 439.788 476.155 C 438.718 475.847 437.575 475.519 436.431 475.19 C 436.45 474.954 436.469 474.719 436.487 474.484 C 439.328 474.484 442.168 474.484 446.02 474.484 C 444.009 475.528 442.855 476.128 441.689 477.096 Z" style=""/>
  <path fill="#EA6C34" opacity="1.000000" stroke="none" d="M 265.927 142.899 C 265.321 141.723 264.734 140.862 264.255 140.16 C 265.801 138.993 267.356 137.819 268.966 136.604 C 270.074 137.567 271.529 138.831 273.014 140.121 C 272.536 141.588 271.922 143.474 271.392 145.105 C 269.787 145.105 267.896 145.105 265.86 145.105 C 265.874 144.794 265.91 144.004 265.927 142.899 Z" style=""/>
  <path fill="#2C2C2C" opacity="1.000000" stroke="none" d="M 305.288 490.051 C 305.234 484.517 305.234 479.335 305.234 474.152 C 305.648 474.142 306.063 474.131 306.477 474.12 C 306.477 478.938 306.477 483.755 306.477 488.785 C 308.962 488.958 310.896 489.094 312.831 489.229 C 312.855 489.62 312.879 490.012 312.902 490.403 C 310.382 490.403 307.862 490.403 305.288 490.051 Z" style=""/>
  <path fill="#80C005" opacity="1.000000" stroke="none" d="M 221.969 278.082 C 230.543 278.179 238.766 278.266 246.989 278.298 C 255.202 278.329 263.416 278.304 271.678 278.739 C 271.212 278.834 270.746 279.011 270.281 279.011 C 250.74 279.014 231.199 279.003 211.659 278.978 C 211.029 278.977 210.399 278.8 209.547 278.459 C 209.324 278.213 209.32 278.195 209.54 278.227 C 209.897 278.217 210.034 278.174 210.171 278.131 C 213.987 278.103 217.803 278.076 221.969 278.082 Z" style=""/>
  <path fill="#EA6C34" opacity="1.000000" stroke="none" d="M 225.769 81.405 C 222.546 84.272 219.269 83.58 219.092 80.17 C 219.028 78.92 219.805 77.198 220.738 76.444 C 221.534 75.801 223.737 75.697 224.196 76.307 C 225.15 77.576 225.362 79.476 225.769 81.405 Z" style=""/>
  <path fill="#00B4EF" opacity="1.000000" stroke="none" d="M 338.449 440.971 C 338.92 441.537 339.66 442.355 339.728 443.231 C 339.905 445.524 339.791 447.843 339.788 450.152 C 339.781 456.723 339.778 456.715 333.787 458.051 C 333.489 458.117 333.262 458.54 332.956 459.953 C 335.771 460.079 338.585 460.259 341.402 460.318 C 344.468 460.382 347.536 460.334 350.961 460.339 C 350.964 460.655 350.611 461.234 350.254 461.237 C 344.254 461.293 338.254 461.277 332.317 461.277 C 331.769 456.894 331.769 456.894 338.412 456.485 C 338.412 451.419 338.412 446.335 338.449 440.971 Z" style=""/>
  <path fill="#FBB201" opacity="1.000000" stroke="none" d="M 382.366 390.101 C 372.414 390.071 362.482 389.723 352.352 389.098 C 360.737 388.861 369.32 388.86 377.902 388.975 C 379.4 388.995 380.892 389.501 382.366 390.101 Z" style=""/>
  <path fill="#FBB201" opacity="1.000000" stroke="none" d="M 351.204 399.032 C 350.287 398.823 349.712 398.649 349.137 398.475 C 349.15 398.308 349.163 398.14 349.176 397.972 C 361.455 397.972 373.734 397.972 386.012 397.972 C 386.558 397.972 387.104 397.972 387.649 397.972 C 387.652 398.156 387.654 398.34 387.657 398.524 C 387.052 398.643 386.446 398.763 385.639 399.016 C 374.14 399.123 362.842 399.096 351.204 399.032 Z" style=""/>
  <path fill="#26B9EF" opacity="1.000000" stroke="none" d="M 184.969 461.269 C 184.756 454.39 184.822 447.356 185.112 440.078 C 185.556 446.185 185.802 452.535 185.959 458.888 C 185.977 459.623 185.496 460.371 184.969 461.269 Z" style=""/>
  <path fill="#EA723A" opacity="1.000000" stroke="none" d="M 170.451 84.083 C 171.389 83.461 172.072 82.915 172.805 82.329 C 173.783 82.995 174.904 83.758 176.047 84.536 C 175.633 85.718 175.188 86.99 174.722 88.322 C 173.644 88.322 172.44 88.322 170.896 88.322 C 170.695 87.13 170.446 85.644 170.451 84.083 Z" style=""/>
  <path fill="#01C4B3" opacity="1.000000" stroke="none" d="M 17.137 354.883 C 17.655 355.328 18.537 356.141 18.538 356.955 C 18.556 367.432 18.447 377.91 18.165 388.642 C 17.669 377.681 17.38 366.466 17.137 354.883 Z" style=""/>
  <path fill="#85C22D" opacity="1.000000" stroke="none" d="M 115.51 284.722 C 115.596 284.436 116.038 283.999 116.481 283.997 C 126.556 283.958 136.632 283.967 146.724 284.822 C 144.642 284.822 142.559 284.822 140.216 284.959 C 131.926 284.988 123.896 284.881 115.51 284.722 Z" style=""/>
  <path fill="#85C22D" opacity="1.000000" stroke="none" d="M 355.451 285.165 C 352.874 284.893 350.633 284.682 348.393 284.47 C 348.396 284.385 348.399 284.3 348.402 284.214 C 358.747 284.214 369.093 284.214 379.669 284.446 C 371.863 284.86 363.825 285.043 355.451 285.165 Z" style=""/>
  <path fill="#01C4B3" opacity="1.000000" stroke="none" d="M 53.903 340.975 C 55.208 341.258 56.163 341.47 57.118 341.682 C 57.115 341.775 57.111 341.868 57.108 341.961 C 48.658 341.961 40.208 341.961 31.759 341.961 C 31.751 341.865 31.744 341.769 31.736 341.674 C 32.328 341.547 32.919 341.42 33.712 341.168 C 40.461 340.997 47.007 340.951 53.903 340.975 Z" style=""/>
  <path fill="#85C22D" opacity="1.000000" stroke="none" d="M 147.909 278.545 C 147.686 279.002 147.117 279.773 146.55 279.772 C 138.038 279.759 129.527 279.644 120.785 279.319 C 129.558 278.89 138.562 278.695 147.909 278.545 Z" style=""/>
  <path fill="#EA723A" opacity="1.000000" stroke="none" d="M 330.235 107.41 C 329.857 108.54 329.661 109.433 329.482 110.249 C 328.187 110.249 326.878 110.249 325.557 110.249 C 325.268 109.107 324.921 107.731 324.607 106.49 C 325.607 105.676 326.566 104.896 327.657 104.008 C 328.557 105.04 329.487 106.106 330.235 107.41 Z" style=""/>
  <path fill="#00B4EF" opacity="1.000000" stroke="none" d="M 316.139 423.628 C 316.105 421.439 314.914 420.893 312.889 420.918 C 305.885 421.003 298.88 420.979 291.876 420.907 C 290.686 420.895 289.501 420.442 288.22 419.898 C 296.826 419.663 305.526 419.753 314.226 419.766 C 316.934 419.77 317.878 420.74 316.139 423.628 Z" style=""/>
  <path fill="#00B4EF" opacity="1.000000" stroke="none" d="M 116.439 448.463 C 116.015 447.57 115.206 446.349 115.184 445.112 C 115.059 438.096 115.068 431.075 115.154 424.058 C 115.181 421.88 114.601 420.68 112.031 420.894 C 112.859 420.427 114.041 419.979 116.418 419.079 C 116.418 429.49 116.418 438.809 116.439 448.463 Z" style=""/>
  <path fill="#EA723A" opacity="1.000000" stroke="none" d="M 293.445 126.617 C 291.986 126.301 290.643 125.973 289.585 125.201 C 289.328 125.013 289.739 122.905 290.332 122.509 C 291.112 121.988 293.2 121.996 293.292 122.287 C 293.697 123.572 293.588 125.04 293.445 126.617 Z" style=""/>
  <path fill="#FBB201" opacity="1.000000" stroke="none" d="M 340.929 367.064 C 341.197 366.233 341.408 365.746 341.845 364.734 C 341.845 375.439 341.845 385.623 341.625 396.051 C 341.363 389.786 341.356 383.275 341.262 376.766 C 341.217 373.645 341.007 370.527 340.929 367.064 Z" style=""/>
  <path fill="#EA6C34" opacity="1.000000" stroke="none" d="M 276.434 98.696 C 275.696 100.083 274.984 101.325 273.966 102.133 C 273.714 102.333 271.983 101.257 271.807 100.528 C 271.581 99.597 272.227 97.517 272.523 97.512 C 273.792 97.489 275.071 98.045 276.434 98.696 Z" style=""/>
  <path fill="#00B4EF" opacity="1.000000" stroke="none" d="M 303.469 456.622 C 303.185 455.844 302.768 454.691 302.76 453.535 C 302.704 444.94 302.712 436.345 302.751 427.75 C 302.756 426.7 303.061 425.652 303.522 424.429 C 303.719 434.918 303.623 445.581 303.469 456.622 Z" style=""/>
  <path fill="#00B4EF" opacity="1.000000" stroke="none" d="M 22.719 435.321 C 23.172 435.67 23.962 436.381 23.962 437.091 C 23.962 444.932 23.839 452.773 23.53 460.857 C 23.248 458.38 23.186 455.66 23.185 452.293 C 23.206 451.468 23.166 451.287 23.126 451.107 C 22.98 445.965 22.834 440.823 22.719 435.321 Z" style=""/>
  <path fill="#1A1A1A" opacity="1.000000" stroke="none" d="M 88.874 490.715 C 88.501 485.203 88.501 479.692 88.501 474.18 C 88.749 474.18 88.998 474.18 89.246 474.18 C 89.246 479.691 89.246 485.203 88.874 490.715 Z" style=""/>
  <path fill="#01C4B3" opacity="1.000000" stroke="none" d="M 16.639 324.403 C 17.091 324.102 17.794 324.162 17.794 324.219 C 17.76 332.761 17.676 341.302 17.381 350.094 C 17.071 345.196 16.972 340.048 16.98 334.19 C 16.997 331.784 16.908 330.086 16.819 328.389 C 16.733 327.18 16.647 325.971 16.639 324.403 Z" style=""/>
  <path fill="#00B4EF" opacity="1.000000" stroke="none" d="M 112.49 181.078 C 112.046 181.157 111.302 180.903 111.3 180.642 C 111.235 172.856 111.244 165.068 111.245 157.281 C 111.245 157.153 111.297 157.025 111.324 156.897 C 111.593 156.993 111.861 157.09 112.28 157.356 C 112.465 165.264 112.5 173.002 112.49 181.078 Z" style=""/>
  <path fill="#80C005" opacity="1.000000" stroke="none" d="M 168.017 285.562 C 169.383 285.275 171.101 284.846 172.822 284.829 C 180.333 284.753 187.844 284.796 195.359 285.473 C 190.46 285.473 185.561 285.473 180.302 285.536 C 176.085 285.603 172.229 285.607 168.017 285.562 Z" style=""/>
  <path fill="#00B4EF" opacity="1.000000" stroke="none" d="M 343.445 456.618 C 343.008 456.306 342.17 455.621 342.167 454.933 C 342.146 449.248 342.279 443.563 342.587 437.635 C 343.016 443.675 343.224 449.959 343.445 456.618 Z" style=""/>
  <path fill="#85C22D" opacity="1.000000" stroke="none" d="M 207.454 278.046 C 207.276 278.407 206.735 278.974 206.197 278.971 C 197.866 278.922 189.535 278.8 180.977 278.452 C 189.531 278.135 198.311 278.061 207.454 278.046 Z" style=""/>
  <path fill="#01C4B3" opacity="1.000000" stroke="none" d="M 53.823 390.779 C 53.552 391.281 53.016 392.154 52.484 392.151 C 44.929 392.106 37.375 391.942 29.63 391.524 C 35.794 391.195 42.147 391.149 49.13 391.246 C 50.682 391.241 51.606 391.093 52.53 390.946 C 52.873 390.878 53.217 390.811 53.823 390.779 Z" style=""/>
  <path fill="#EA6C34" opacity="1.000000" stroke="none" d="M 180.357 128.036 C 180.741 129.59 181.016 131.046 180.827 132.432 C 180.787 132.723 178.861 133.16 178.144 132.789 C 177.446 132.427 176.623 130.549 176.83 130.317 C 177.718 129.319 178.966 128.681 180.357 128.036 Z" style=""/>
  <path fill="#00B4EF" opacity="1.000000" stroke="none" d="M 382.831 158.2 C 383.02 157.233 383.16 156.629 383.3 156.026 C 383.417 156.044 383.534 156.062 383.651 156.081 C 383.651 164.762 383.651 173.443 383.651 182.125 C 383.548 182.154 383.445 182.184 383.342 182.214 C 383.233 181.769 383.123 181.323 382.947 180.6 C 382.848 173.069 382.815 165.816 382.831 158.2 Z" style=""/>
  <path fill="#01C4B3" opacity="1.000000" stroke="none" d="M 52.2 308.499 C 54.188 308.204 56.531 307.778 58.876 307.765 C 64.827 307.731 70.778 307.881 76.973 308.168 C 68.996 308.437 60.776 308.496 52.2 308.499 Z" style=""/>
  <path fill="#01C4B3" opacity="1.000000" stroke="none" d="M 27.691 331.971 C 27.212 331.73 26.398 331.158 26.401 330.591 C 26.441 323.387 26.598 316.184 26.989 308.775 C 27.3 313.682 27.346 318.793 27.257 324.591 C 27.262 326.521 27.403 327.764 27.543 329.008 C 27.607 329.886 27.671 330.764 27.691 331.971 Z" style=""/>
  <path fill="#85C22D" opacity="1.000000" stroke="none" d="M 401.174 279.835 C 394.668 279.899 387.809 279.9 380.857 279.604 C 381.839 279.274 382.912 279.242 384.554 279.455 C 386.838 279.695 388.555 279.69 390.271 279.685 C 393.788 279.714 397.305 279.743 401.174 279.835 Z" style=""/>
  <path fill="#E00196" opacity="1.000000" stroke="none" d="M 233.518 368.703 C 233.813 367.36 234.061 366.333 234.54 364.344 C 234.54 371.889 234.54 378.5 234.334 385.364 C 233.952 381.197 233.776 376.775 233.722 371.926 C 233.911 371.241 233.832 371.048 233.605 370.92 C 233.56 370.286 233.515 369.652 233.518 368.703 Z" style=""/>
  <path fill="#85C22D" opacity="1.000000" stroke="none" d="M 113.972 279.262 C 113.744 279.759 113.198 280.579 112.652 280.58 C 106.433 280.581 100.215 280.457 93.765 280.135 C 97.061 279.789 100.589 279.674 104.791 279.685 C 107.124 279.656 108.782 279.502 110.441 279.348 C 111.512 279.3 112.583 279.252 113.972 279.262 Z" style=""/>
  <path fill="#FBB201" opacity="1.000000" stroke="none" d="M 348.531 328.404 C 348.319 329.374 348.15 329.986 347.76 331.396 C 347.76 322.582 347.76 314.607 347.976 306.385 C 348.32 313.44 348.447 320.742 348.531 328.404 Z" style=""/>
  <path fill="#85C22D" opacity="1.000000" stroke="none" d="M 314.702 278.179 C 312.952 278.505 310.848 278.978 308.744 278.972 C 303.009 278.957 297.274 278.74 291.365 278.308 C 298.91 278.044 306.629 278.075 314.702 278.179 Z" style=""/>
  <path fill="#FBB201" opacity="1.000000" stroke="none" d="M 338.189 306.477 C 338.518 308.318 338.961 310.533 338.973 312.751 C 339.003 318.553 338.845 324.356 338.546 330.406 C 338.256 322.72 338.181 314.786 338.189 306.477 Z" style=""/>
  <path fill="#00B4EF" opacity="1.000000" stroke="none" d="M 106.677 147.354 C 106.959 151.351 107.267 155.722 107.363 160.097 C 107.435 163.445 107.239 166.8 106.957 170.406 C 106.705 163.016 106.658 155.373 106.677 147.354 Z" style=""/>
  <path fill="#00B4EF" opacity="1.000000" stroke="none" d="M 157.978 419.793 C 158.067 425.037 157.821 430.39 157.577 435.744 C 157.485 437.751 157.397 439.759 157.084 442.009 C 156.809 435.884 156.713 429.518 156.75 423.152 C 156.756 422.067 157.331 420.985 157.978 419.793 Z" style=""/>
  <path fill="#00B4EF" opacity="1.000000" stroke="none" d="M 161.071 443.66 C 160.798 445.295 160.581 446.581 160.203 448.819 C 160.203 442.057 160.203 436.25 160.439 430.208 C 160.825 434.419 160.976 438.865 161.071 443.66 Z" style=""/>
  <path fill="#FBB201" opacity="1.000000" stroke="none" d="M 398.772 395.727 C 398.569 389.187 398.632 382.383 398.901 375.327 C 399.084 381.87 399.061 388.666 398.772 395.727 Z" style=""/>
  <path fill="#00B4EF" opacity="1.000000" stroke="none" d="M 139.794 445.143 C 139.597 439.149 139.453 432.776 139.526 426.155 C 139.778 432.194 139.813 438.479 139.794 445.143 Z" style=""/>
  <path fill="#00B4EF" opacity="1.000000" stroke="none" d="M 299.642 437.756 C 299.699 442.208 299.704 447.036 299.428 451.958 C 299.295 447.412 299.442 442.772 299.642 437.756 Z" style=""/>
  <path fill="#00B4EF" opacity="1.000000" stroke="none" d="M 185.091 436.148 C 185.046 436.471 184.818 436.446 184.515 436.491 C 184.212 436.536 183.828 436.55 183.828 436.55 C 183.837 431.581 183.846 426.612 183.863 421.253 C 184.183 423.866 184.495 426.87 184.699 430.518 C 184.672 432.084 184.754 433.007 184.836 433.93 C 184.936 434.562 185.036 435.194 185.091 436.148 Z" style=""/>
  <path fill="#E2229C" opacity="1.000000" stroke="none" d="M 224.244 307.639 C 224.536 309.299 224.602 311.119 224.588 313.325 C 224.345 311.741 224.181 309.77 224.244 307.639 Z" style=""/>
  <path fill="#00B4EF" opacity="1.000000" stroke="none" d="M 299.194 425.444 C 299.497 427.631 299.82 430.191 299.924 432.986 C 299.541 430.753 299.378 428.285 299.194 425.444 Z" style=""/>
  <path fill="#24C8B8" opacity="1.000000" stroke="none" d="M 16.73 328.703 C 16.908 330.086 16.997 331.784 17.036 333.821 C 16.871 332.446 16.756 330.731 16.73 328.703 Z" style=""/>
  <path fill="#91C650" opacity="1.000000" stroke="none" d="M 110.128 279.273 C 108.782 279.502 107.124 279.656 105.129 279.75 C 106.466 279.525 108.14 279.362 110.128 279.273 Z" style=""/>
  <path fill="#91C650" opacity="1.000000" stroke="none" d="M 389.992 279.521 C 388.555 279.69 386.838 279.695 384.871 279.521 C 386.318 279.346 388.015 279.351 389.992 279.521 Z" style=""/>
  <path fill="#24C8B8" opacity="1.000000" stroke="none" d="M 27.605 328.695 C 27.403 327.764 27.262 326.521 27.181 324.947 C 27.383 325.872 27.525 327.127 27.605 328.695 Z" style=""/>
  <path fill="#00B4EF" opacity="1.000000" stroke="none" d="M 183.783 420.608 C 182.987 420.899 182.046 420.907 180.752 420.898 C 181.478 420.695 182.559 420.51 183.783 420.608 Z" style=""/>
  <path fill="#24C8B8" opacity="1.000000" stroke="none" d="M 52.251 390.879 C 51.606 391.093 50.682 391.241 49.466 391.325 C 50.106 391.111 51.039 390.961 52.251 390.879 Z" style=""/>
  <path fill="#26B9EF" opacity="1.000000" stroke="none" d="M 184.936 433.663 C 184.754 433.007 184.672 432.084 184.644 430.877 C 184.811 431.526 184.923 432.461 184.936 433.663 Z" style=""/>
  <path fill="#26B9EF" opacity="1.000000" stroke="none" d="M 127.739 237.667 C 127.962 237.661 128.067 237.654 128.173 237.647 C 128.052 237.596 127.935 237.523 127.809 237.501 C 127.709 237.483 127.6 237.527 127.495 237.543 C 127.537 237.584 127.579 237.625 127.739 237.667 Z" style=""/>
  <path fill="#32BBF0" opacity="1.000000" stroke="none" d="M 23.042 451.234 C 23.166 451.287 23.206 451.468 23.222 451.925 C 23.119 451.921 23.038 451.642 23.042 451.234 Z" style=""/>
  <path fill="#E2249C" opacity="1.000000" stroke="none" d="M 233.545 371.119 C 233.832 371.048 233.911 371.241 233.768 371.586 C 233.623 371.554 233.554 371.436 233.545 371.119 Z" style=""/>
  <path fill="#91C650" opacity="1.000000" stroke="none" d="M 210.082 278.023 C 210.034 278.174 209.897 278.217 209.547 278.235 C 209.553 278.111 209.773 278.013 210.082 278.023 Z" style=""/>
  <path fill="#E2229C" opacity="1.000000" stroke="none" d="M 225.1 306.692 C 225.183 306.903 225.064 307.182 224.716 307.483 C 224.623 307.257 224.761 307.008 225.1 306.692 Z" style=""/>
  <path fill="#26B9EF" opacity="1.000000" stroke="none" d="M 180.579 458.988 C 180.752 458.918 181.013 459.072 181.344 459.459 C 181.166 459.533 180.916 459.372 180.579 458.988 Z" style=""/>
  <path fill="#26B9EF" opacity="1.000000" stroke="none" d="M 181.362 459.869 C 181.558 459.792 181.806 459.94 182.08 460.324 C 181.876 460.405 181.645 460.249 181.362 459.869 Z" style=""/>
  <path fill="#26B9EF" opacity="1.000000" stroke="none" d="M 182.126 460.734 C 182.346 460.667 182.609 460.86 182.925 461.314 C 182.708 461.381 182.439 461.188 182.126 460.734 Z" style=""/>
  <path fill="#E2229C" opacity="1.000000" stroke="none" d="M 224.566 313.889 C 224.761 313.806 225.02 313.94 225.311 314.315 C 225.105 314.407 224.867 314.256 224.566 313.889 Z" style=""/>
  <path fill="#E00196" opacity="1.000000" stroke="none" d="M 243.438 322.818 C 243.462 326.219 243.485 329.621 243.411 333.546 C 243.299 334.305 243.361 334.515 243.501 334.699 C 243.567 336.182 243.633 337.665 243.624 339.517 C 243.36 341.166 243.172 342.445 242.984 343.725 C 242.887 343.713 242.791 343.7 242.694 343.688 C 242.694 334.446 242.694 325.203 242.694 315.961 C 242.793 315.953 242.891 315.945 242.99 315.937 C 243.111 316.568 243.232 317.198 243.472 318.045 C 243.626 319.204 243.661 320.148 243.53 321.595 C 243.304 322.349 243.329 322.588 243.438 322.818 Z" style=""/>
  <path fill="#26B9EF" opacity="1.000000" stroke="none" d="M 183.901 436.686 C 183.828 436.55 184.212 436.536 184.403 436.517 C 184.387 436.605 184.181 436.713 183.901 436.686 Z" style=""/>
  <path fill="#E2249C" opacity="1.000000" stroke="none" d="M 243.595 334.544 C 243.361 334.515 243.299 334.305 243.357 333.906 C 243.608 333.9 243.705 334.116 243.595 334.544 Z" style=""/>
  <path fill="#E2249C" opacity="1.000000" stroke="none" d="M 243.556 322.662 C 243.329 322.588 243.304 322.349 243.445 321.938 C 243.739 321.983 243.789 322.226 243.556 322.662 Z" style=""/>
</svg>