  <svg width="500" height="500" viewBox="0 0 500 500" fill="none" xmlns="http://www.w3.org/2000/svg">
    <g id="earlyFoundationsLogo">
      <g id="humans" style="--order: 2">
        <g id="pinkHuman">
          <path id="leftHumanBody"
            d="M195.672 241.644C199.419 253.1 203.096 264.222 206.953 275.884C199.38 265.117 193.634 253.87 188.996 241.94C187.969 239.298 186.89 236.633 185.478 234.215C183.308 230.501 180.448 229.939 177.467 232.958C174.606 235.856 172.278 239.348 169.712 242.576C164.662 248.927 159.666 255.33 154.517 261.59C153.244 263.138 151.468 264.22 149.614 265.194C160.344 250.962 165.991 235.089 164.789 216.835C163.778 201.49 158.427 187.658 151.118 174.604C142.711 159.589 135.887 143.929 133.133 126.538C132.882 124.953 132.672 123.361 133.197 121.443C133.583 122.53 134.026 123.598 134.345 124.706C139.823 143.762 149.472 160.03 164.073 172.531C168.831 176.604 174.837 179.112 180.466 181.894C181.753 182.531 183.947 181.625 185.539 180.944C191.577 178.361 197.79 176.068 203.473 172.764C213.538 166.913 223.637 161.292 234.794 158.16C236.129 157.785 237.518 157.635 238.995 157.591C207.203 175.449 185.61 199.138 195.672 241.644Z"
            fill="#E2229C" />
          <path id="leftHumanHead"
            d="M197.785 161.541C196.059 164.576 194.863 167.836 192.67 169.901C185.885 176.288 176.791 172.719 175.172 163.248C173.999 156.384 175.866 150.497 181.021 146.093C184.495 143.125 188.524 142.416 192.561 144.696C197.203 147.318 198.414 152.015 198.439 157.177C198.446 158.524 198.063 159.872 197.785 161.541Z"
            fill="#E2229C" />
        </g>
        <g id="greenHuman">
          <path id="rightHumanBody"
            d="M290.458 277.505C294.639 266.235 299.376 255.155 302.847 243.643C306.445 231.705 307.485 219.23 304.413 206.865C300.636 191.665 291.525 180.251 280.069 170.982C273.823 165.928 266.819 161.932 260 157.354C261.667 157.66 263.387 157.818 265.022 158.3C276.256 161.609 286.567 167.104 296.54 173.407C299.075 175.01 301.689 176.487 304.332 177.883C314.767 183.395 324.458 181.98 333.442 174.235C348.978 160.841 359.54 143.939 365.159 123.541C365.338 122.892 365.534 122.247 365.747 121.61C365.774 121.529 365.949 121.505 366.768 121.117C366.171 124.996 365.81 128.495 365.078 131.904C361.873 146.827 355.955 160.557 348.59 173.638C341.259 186.66 335.753 200.381 334.488 215.701C333.071 232.85 337.746 248.062 347.461 261.664C348.157 262.639 348.871 263.598 349.241 265.111C348.484 264.632 347.562 264.312 346.997 263.649C341.409 257.092 335.83 250.525 330.357 243.86C327.744 240.677 325.573 237.065 322.83 234.026C318.736 229.489 315.435 230.129 312.681 235.998C309.131 243.566 306.214 251.487 302.394 258.889C299.137 265.199 294.99 270.99 290.982 277.254C290.726 277.498 290.458 277.505 290.458 277.505Z"
            fill="#21C7B7" />
          <path id="rightHumanHead"
            d="M317.784 172.234C311.187 174.065 305.965 171.505 302.796 165.155C299.558 158.668 300.34 150.129 304.581 146.101C307.297 143.522 310.576 142.784 313.947 143.857C320.197 145.847 323.16 150.941 324.205 157.436C325.225 163.778 323.005 168.874 317.784 172.234Z"
            fill="#21C7B7" />
        </g>
      </g>
      <g id="yellows" style="--order: 4">
        <path id="yellow3"
          d="M242.827 59.58C242.947 55.698 242.84 52.125 243.431 48.687C243.777 46.672 244.815 44.245 246.294 43.134C248.211 41.694 251.047 40.461 253.163 40.901C254.607 41.201 256.309 44.432 256.497 46.495C257.433 56.801 254.275 66.348 250.822 75.763C250.179 77.516 249.251 79.15 248.454 80.839C248.027 80.902 247.599 80.965 247.171 81.027C245.745 74 244.319 66.973 242.827 59.58Z"
          fill="#FCB82B" />
        <path id="yellow4"
          d="M312.689 89.425C310.051 91.68 307.592 93.713 305.132 95.747C305.692 85.953 307.503 76.998 312.134 69.137C313.805 66.302 316.527 63.718 319.334 62.197C323.146 60.131 326.272 62.866 324.715 67.051C322.296 73.556 318.781 79.607 315.616 85.785C314.956 87.073 313.796 88.073 312.689 89.425Z"
          fill="#FCB82B" />
        <path id="yellow2"
          d="M194.59 85.455C191.46 81.664 188.381 78.194 185.675 74.421C184.572 72.883 183.588 70.599 183.796 68.818C184.047 66.672 185.174 63.902 186.761 62.896C188.13 62.028 190.848 62.838 192.644 63.685C194.022 64.335 195.071 66.078 195.957 67.545C200.291 74.721 201.737 82.74 202.226 92.13C199.274 89.558 197.032 87.606 194.59 85.455Z"
          fill="#FCB82B" />
        <path id="yellow1"
          d="M144.362 102.44C150.482 106.684 159.265 117.38 162.778 124.843C155.134 122.376 147.909 119.664 141.875 114.404C140.183 112.928 138.708 110.709 138 108.516C136.534 103.973 139.532 101.103 144.362 102.44Z"
          fill="#FCB82B" />
        <path id="yellow5"
          d="M358.961 107.932C361.764 110.179 359.7 112.322 358.649 113.549C356.537 116.016 354.041 118.337 351.294 119.914C346.948 122.409 342.265 124.244 336.827 126.776C337.445 124.759 337.548 123.685 338.05 122.898C343.096 114.982 348.895 108.179 358.961 107.932Z"
          fill="#FCB82B" />
      </g>
      <g id="primrose">
        <path id="Vector"
          d="M100.908 481.71C100.207 481.878 99.254 482.281 99.141 482.865C98.63 485.53 98.355 488.247 97.995 490.945C97.519 490.858 97.043 490.771 96.567 490.684C97.272 485.293 97.977 479.902 98.827 473.401C101.286 478.613 103.251 482.779 105.485 487.514C107.694 482.8 109.617 478.696 112.034 473.537C112.934 479.855 113.693 485.187 114.451 490.518C114.009 490.638 113.566 490.757 113.123 490.877C112.524 487.517 111.926 484.158 111.107 479.562C109.052 483.878 107.43 487.285 105.51 491.318C103.865 487.896 102.454 484.963 100.908 481.71Z"
          fill="#2C2C2C" />
        <path id="Vector_2"
          d="M402.125 487.213C402.047 488.624 401.968 489.706 401.89 490.787C401.581 490.779 401.273 490.77 400.964 490.761C400.964 485.353 400.964 479.945 400.964 474.192C404.066 474.639 408.063 472.149 410.149 476.928C411.372 479.731 409.968 481.625 405.636 483.663C407.208 485.924 408.758 488.152 410.307 490.38C409.967 490.706 409.627 491.033 409.287 491.359C407.14 488.656 404.992 485.953 402.366 482.648C402.255 484.602 402.19 485.742 402.125 487.213ZM406.7 481.23C407.277 479.963 407.854 478.695 408.43 477.428C406.49 476.683 404.55 475.938 402.099 474.996C402.099 477.004 402.055 477.801 402.11 478.589C402.174 479.491 402.325 480.385 402.447 481.351C403.796 481.351 404.927 481.351 406.7 481.23Z"
          fill="#262727" />
        <path id="Vector_3"
          d="M138.658 479.522C141.224 474.116 145.214 472.292 149.762 474.206C153.798 475.904 155.894 480.819 154.531 485.391C153.246 489.702 148.719 492.157 144.26 490.961C139.683 489.734 137.599 485.656 138.658 479.522ZM145.812 489.635C146.812 489.485 147.874 489.516 148.8 489.153C152.348 487.758 154.041 484 152.918 480.264C151.871 476.779 148.259 474.513 145.085 475.351C141.601 476.271 138.86 480.12 140.11 483.684C140.923 486 143.461 487.632 145.812 489.635Z"
          fill="#1F2020" />
        <path id="Vector_4"
          d="M483.713 490.788C481.305 488.333 479.114 485.854 476.514 482.912C476.377 485.858 476.265 488.288 476.152 490.718C475.851 490.714 475.55 490.711 475.248 490.707C475.248 485.308 475.248 479.909 475.248 474.436C481.183 473.42 483.716 474.113 484.457 477.23C485.397 481.178 482.934 482.53 480.077 483.326C481.405 485.89 482.667 488.327 483.713 490.788ZM478.966 475.656C473.996 475.705 476.992 479.139 476.509 481.093C476.808 481.485 477.107 481.876 477.406 482.267C479.24 481.128 481.073 479.989 482.907 478.849C481.828 477.8 480.748 476.752 478.966 475.656Z"
          fill="#262727" />
        <path id="Vector_5"
          d="M467.306 480.6C467.843 485.32 466.416 488.718 462.541 490.603C459.232 492.211 454.901 491.139 452.726 488.267C450.305 485.068 450.063 481.544 451.886 477.963C453.509 474.772 456.28 473.287 459.552 473.555C463.444 473.873 466.269 476.023 467.306 480.6ZM465.484 484.768C467.449 477.692 460.517 473.679 456.697 475.745C453.77 477.327 451.732 479.86 452.694 483.162C453.385 485.533 455.351 488.256 457.413 489.228C460.707 490.78 463.525 488.737 465.484 484.768Z"
          fill="#1F2020" />
        <path id="Vector_6"
          d="M265.242 491.231C259.234 489.152 256.847 484.646 258.654 479.313C260.241 474.626 265.121 472.344 269.684 474.153C273.216 475.554 275.475 479.656 274.899 483.626C274.194 488.494 271.028 491.085 265.242 491.231ZM260.422 479.488C259.125 482.591 259.494 485.697 262.044 487.505C263.815 488.761 266.536 489.417 268.623 489.039C271.639 488.493 273.219 485.709 273.216 482.402C273.213 479.074 271.481 476.76 268.576 475.659C265.169 474.367 262.663 475.978 260.422 479.488Z"
          fill="#262727" />
        <path id="Vector_7"
          d="M239.724 483.251C239.722 479.964 239.722 477.065 239.722 474.167C240.155 474.147 240.587 474.127 241.02 474.107C241.186 476.208 241.353 478.31 241.543 480.707C243.992 480.707 246.464 480.707 249.192 480.707C249.306 478.51 249.421 476.303 249.535 474.097C250.033 474.109 250.532 474.121 251.03 474.133C251.232 479.67 251.092 485.217 251.127 490.758C250.636 490.794 250.145 490.83 249.655 490.866C249.487 488.22 249.32 485.574 249.148 482.86C246.655 482.86 244.258 482.86 241.528 482.86C241.395 485.57 241.267 488.163 241.139 490.757C240.668 490.755 240.197 490.754 239.726 490.752C239.726 488.381 239.726 486.011 239.724 483.251Z"
          fill="#262727" />
        <path id="Vector_8"
          d="M294.231 474.931C297.482 477.407 298.54 480.511 297.812 484.358C297.17 487.749 295.287 489.92 292.186 490.882C288.431 492.047 284.77 490.698 282.689 487.435C280.718 484.345 280.938 479.678 283.194 476.745C285.698 473.489 289.279 472.84 294.231 474.931ZM293.7 476.804C291.673 476.405 289.499 475.316 287.652 475.76C284.496 476.52 282.895 479.276 283.014 482.808C283.128 486.193 284.968 488.408 287.887 489.368C291.127 490.433 293.749 488.936 295.409 486.05C297.222 482.897 296.711 479.814 293.7 476.804Z"
          fill="#1F2020" />
        <path id="Vector_9"
          d="M358.476 476.613C361.012 480.346 361.175 484.008 358.933 487.516C356.864 490.753 353.77 491.879 350.16 491.051C346.669 490.251 344.495 487.828 343.84 484.193C343.16 480.423 344.301 477.172 347.421 474.992C350.922 472.546 354.213 473.006 358.476 476.613ZM357.058 477.707C354.732 475.309 351.799 473.938 349.171 476.187C347.336 477.757 345.557 480.78 345.633 483.084C345.702 485.164 347.981 487.708 349.904 489.036C352.443 490.79 355.18 489.475 357.074 487.137C359.329 484.354 359.509 481.263 357.058 477.707Z"
          fill="#1F2020" />
        <path id="Vector_10"
          d="M121.673 489.305C121.674 484.17 121.674 479.397 121.674 474.636C127.37 473.279 130.744 474.106 131.379 477.199C132.157 480.994 130.142 482.733 126.362 483.171C128.206 485.821 129.806 488.12 131.406 490.419C131.103 490.708 130.801 490.997 130.498 491.286C128.289 488.612 126.079 485.938 123.135 482.376C123.135 485.377 123.167 487.34 123.072 489.295C123.065 489.444 122.16 489.543 121.673 489.305ZM123.204 480.705C125.166 480.583 127.152 480.596 129.066 480.208C129.394 480.141 129.759 477.615 129.523 477.492C127.67 476.528 125.675 475.872 123.099 474.881C123.099 477.386 123.099 478.704 123.204 480.705Z"
          fill="#1F2020" />
        <path id="Vector_11"
          d="M224.946 473.513C227.764 474.353 230.266 475.228 232.768 476.104C232.624 476.604 232.48 477.104 232.336 477.604C231.757 477.49 231.08 477.542 230.614 477.235C226.428 474.481 223.26 474.607 220.583 477.716C218.335 480.327 218.275 484.391 220.443 487.038C223.055 490.226 226.4 490.482 230.425 487.84C230.901 487.527 231.475 487.382 232.004 487.16C232.184 487.612 232.364 488.064 232.545 488.517C230.508 489.439 228.538 490.843 226.42 491.172C223.245 491.666 220.327 490.587 218.472 487.419C215.072 481.615 217.749 475.574 224.946 473.513Z"
          fill="#1F2020" />
        <path id="Vector_12"
          d="M80.707 477.195C80.553 481.615 80.49 481.697 75.968 483.551C77.598 485.846 79.167 488.054 80.736 490.261C80.442 490.558 80.149 490.855 79.855 491.151C77.681 488.553 75.506 485.955 72.557 482.431C72.557 485.877 72.557 488.341 72.557 490.804C72.189 490.795 71.821 490.785 71.453 490.776C71.453 485.378 71.453 479.98 71.453 474.171C74.47 474.734 78.332 472.218 80.707 477.195ZM77.718 476.052C76.131 475.907 74.543 475.763 72.912 475.615C72.912 477.824 72.912 479.528 72.912 482.082C75.166 481.283 77.054 480.802 78.709 479.859C79.017 479.684 78.39 477.656 77.718 476.052Z"
          fill="#1A1A1A" />
        <path id="Vector_13"
          d="M178.095 474.102C180.951 474.072 183.465 474.072 185.978 474.072C186.019 474.479 186.06 474.886 186.101 475.292C183.685 475.526 181.269 475.76 178.76 476.003C178.76 477.523 178.76 478.863 178.76 480.463C181.22 480.705 183.681 480.947 186.142 481.189C186.124 481.573 186.107 481.956 186.09 482.34C183.761 482.34 181.432 482.34 178.88 482.34C178.88 484.746 178.88 486.71 178.88 488.834C181.286 489.009 183.715 489.186 186.143 489.363C186.14 489.701 186.138 490.039 186.135 490.377C183.225 490.377 180.314 490.377 176.69 490.377C177.035 485.11 177.394 479.621 178.095 474.102Z"
          fill="#262727" />
        <path id="Vector_14"
          d="M53.905 475.731C56.539 475.156 59.232 474.522 61.769 474.945C62.59 475.081 63.718 478.123 63.469 479.602C62.693 484.214 58.699 482.48 55.737 483.304C55.585 485.76 55.428 488.289 55.272 490.818C54.816 490.808 54.36 490.798 53.904 490.789C53.904 485.887 53.904 480.985 53.905 475.731ZM55.495 477.873C55.578 479.032 55.662 480.191 55.828 482.517C58.297 481.228 60.134 480.385 61.785 479.24C61.97 479.112 61.13 476.387 60.715 476.372C58.99 476.306 57.245 476.817 55.495 477.873Z"
          fill="#262727" />
        <path id="Vector_15"
          d="M376.113 481.786C373.781 482.462 371.692 482.938 369.385 483.463C369.255 485.74 369.111 488.275 368.967 490.81C368.625 490.797 368.283 490.784 367.942 490.771C367.942 485.299 367.942 479.827 367.942 473.363C370.939 474.238 373.983 474.788 376.648 476.167C377.238 476.473 376.489 479.703 376.113 481.786ZM369.226 476.434C369.226 478.01 369.226 479.586 369.226 482.179C371.669 481.289 373.597 480.72 375.376 479.822C375.717 479.649 375.697 477.495 375.473 477.415C373.562 476.726 371.566 476.305 369.226 476.434Z"
          fill="#1A1A1A" />
        <path id="Vector_16"
          d="M202.42 487.203C203.951 487.982 205.178 489.368 206.465 489.435C208.482 489.539 209.308 486.67 207.85 484.819C206.876 483.584 205.334 482.806 204.519 481.492C203.546 479.925 202.654 478.025 202.577 476.227C202.541 475.388 204.518 473.709 205.556 473.731C207.167 473.766 208.756 474.931 210.355 475.617C210.129 476.111 209.902 476.606 209.676 477.1C208.865 476.631 208.092 475.915 207.23 475.761C206.357 475.606 204.739 475.783 204.609 476.212C204.321 477.162 204.407 478.68 204.976 479.394C206.198 480.926 208.19 481.847 209.168 483.489C210.004 484.892 210.487 487.206 209.965 488.641C209.518 489.872 207.331 491.245 206.089 491.079C204.486 490.864 203.057 489.178 201.553 488.126C201.75 487.823 201.946 487.521 202.42 487.203Z"
          fill="#1F2020" />
        <path id="Vector_17"
          d="M428.91 484.451C429.845 486.633 430.649 488.541 431.74 491.129C427.995 490.06 428.742 484.885 424.134 484.88C419.504 484.874 419.925 489.504 417.412 491.034C417.148 490.805 416.883 490.575 416.618 490.345C418.999 484.967 421.379 479.588 424.069 473.508C425.837 477.514 427.308 480.846 428.91 484.451ZM425.531 483.793C425.268 481.936 425.005 480.078 424.742 478.22C424.382 478.268 424.022 478.316 423.662 478.363C422.962 480.021 422.261 481.68 421.428 483.653C422.912 483.727 423.917 483.778 425.531 483.793Z"
          fill="#1A1A1A" />
        <path id="Vector_18"
          d="M32.818 485.518C27.662 483.8 25.036 486.858 23.197 491.528C22.883 491.168 22.57 490.807 22.257 490.447C24.634 485.063 27.011 479.679 29.736 473.507C32.419 479.596 34.811 485.025 37.203 490.455C36.872 490.665 36.542 490.875 36.211 491.084C35.175 489.29 34.14 487.495 32.818 485.518ZM28.947 479.116C28.383 480.561 27.82 482.005 27.182 483.643C29.039 483.643 30.517 483.643 32.947 483.643C31.456 481.599 30.373 480.115 28.947 479.116Z"
          fill="#1A1A1A" />
        <path id="Vector_19"
          d="M163.777 476.027C163.912 477.547 164.067 479 164.759 480.054C165.464 481.127 167.078 481.6 167.614 482.707C168.475 484.484 169.445 486.724 169.084 488.468C168.836 489.67 166.39 491.137 164.975 491.082C163.37 491.02 161.818 489.393 160.242 488.446C160.512 487.989 160.781 487.531 161.051 487.074C161.68 487.514 162.262 488.195 162.947 488.343C164.26 488.627 165.63 488.61 166.977 488.717C166.803 487.183 166.982 485.453 166.353 484.171C165.748 482.936 164.021 482.353 163.309 481.138C162.441 479.658 161.636 477.78 161.748 476.147C161.813 475.198 163.767 473.641 164.805 473.698C166.384 473.785 167.905 475.036 169.451 475.793C169.305 476.094 169.16 476.396 169.014 476.698C167.353 476.393 165.692 476.089 163.777 476.027Z"
          fill="#1F2020" />
        <path id="Vector_20"
          d="M321.068 479.111C322.733 480.653 324.619 481.702 325.531 483.357C326.377 484.892 326.86 487.394 326.239 488.872C325.719 490.112 323.332 491.171 321.857 491.056C320.403 490.944 319.058 489.256 317.665 488.26C317.95 487.869 318.234 487.478 318.519 487.086C319.323 487.748 320.054 488.773 320.951 488.979C322.017 489.224 323.645 489.182 324.253 488.493C324.843 487.822 324.884 485.901 324.39 485.02C323.642 483.683 321.993 482.938 321.148 481.634C320.149 480.091 319.173 478.257 319.033 476.474C318.964 475.604 320.83 473.757 321.792 473.778C323.495 473.815 325.177 474.941 327.128 475.715C325.051 478.551 320.053 470.794 321.068 479.111Z"
          fill="#1A1A1A" />
        <path id="Vector_21"
          d="M391.127 474.082C392.215 474.23 392.976 474.379 393.737 474.527C393.725 474.819 393.713 475.11 393.702 475.402C391.366 475.402 389.031 475.402 386.459 475.402C386.459 477.317 386.459 478.755 386.459 480.505C388.776 480.721 391.253 480.952 393.73 481.183C393.715 481.558 393.7 481.933 393.685 482.309C391.363 482.309 389.04 482.309 386.474 482.309C386.474 484.704 386.474 486.655 386.474 488.906C388.866 489.043 391.269 489.181 393.673 489.319C393.665 489.672 393.657 490.024 393.649 490.377C390.752 490.377 387.855 490.377 384.749 490.377C384.749 485.216 384.749 479.821 384.749 474.082C386.744 474.082 388.772 474.082 391.127 474.082Z"
          fill="#1F2020" />
        <path id="Vector_22"
          d="M441.689 477.096C441.678 481.644 441.678 485.822 441.678 490.001C441.332 490.023 440.987 490.045 440.641 490.068C439.145 485.636 440.761 480.826 439.788 476.155C438.718 475.847 437.575 475.519 436.431 475.19C436.45 474.954 436.469 474.719 436.487 474.484C439.328 474.484 442.168 474.484 446.02 474.484C444.009 475.528 442.855 476.128 441.689 477.096Z"
          fill="#2C2C2C" />
        <path id="Vector_23"
          d="M305.288 490.051C305.234 484.517 305.234 479.335 305.234 474.152C305.648 474.142 306.063 474.131 306.477 474.12C306.477 478.938 306.477 483.755 306.477 488.785C308.962 488.958 310.896 489.094 312.831 489.229C312.855 489.62 312.879 490.012 312.902 490.403C310.382 490.403 307.862 490.403 305.288 490.051Z"
          fill="#2C2C2C" />
        <path id="Vector_24"
          d="M88.874 490.715C88.501 485.203 88.501 479.692 88.501 474.18C88.749 474.18 88.998 474.18 89.246 474.18C89.246 479.691 89.246 485.203 88.874 490.715Z"
          fill="#1A1A1A" />
      </g>
      <g id="oranges" style="--order: 3">
        <path id="orange4"
          d="M219.476 122.476C218.66 120.37 217.931 118.595 217.24 116.914C218.863 115.681 220.857 114.166 222.688 112.775C224.11 113.962 225.933 115.486 227.774 117.025C227.208 118.776 226.415 121.228 225.693 123.46C223.866 123.265 221.714 123.036 219.476 122.476Z"
          fill="#EA6C34" />
        <path id="orange5"
          d="M265.927 142.899C265.321 141.723 264.734 140.862 264.255 140.16C265.801 138.993 267.356 137.819 268.966 136.604C270.074 137.567 271.529 138.831 273.014 140.121C272.536 141.588 271.922 143.474 271.392 145.105C269.787 145.105 267.896 145.105 265.86 145.105C265.874 144.794 265.91 144.004 265.927 142.899Z"
          fill="#EA6C34" />
        <path id="orange3"
          d="M225.769 81.405C222.546 84.272 219.269 83.58 219.092 80.17C219.028 78.92 219.805 77.198 220.738 76.444C221.534 75.801 223.737 75.697 224.196 76.307C225.15 77.576 225.362 79.476 225.769 81.405Z"
          fill="#EA6C34" />
        <path id="orange1"
          d="M170.451 84.083C171.389 83.461 172.072 82.915 172.805 82.329C173.783 82.995 174.904 83.758 176.047 84.536C175.633 85.718 175.188 86.99 174.722 88.322C173.644 88.322 172.44 88.322 170.896 88.322C170.695 87.13 170.446 85.644 170.451 84.083Z"
          fill="#EA723A" />
        <path id="orange8"
          d="M330.235 107.41C329.857 108.54 329.661 109.433 329.482 110.249C328.187 110.249 326.878 110.249 325.557 110.249C325.268 109.107 324.921 107.731 324.607 106.49C325.607 105.676 326.566 104.896 327.657 104.008C328.557 105.04 329.487 106.106 330.235 107.41Z"
          fill="#EA723A" />
        <path id="orange7"
          d="M293.445 126.617C291.986 126.301 290.643 125.973 289.585 125.201C289.328 125.013 289.739 122.905 290.332 122.509C291.112 121.988 293.2 121.996 293.292 122.287C293.697 123.572 293.588 125.04 293.445 126.617Z"
          fill="#EA723A" />
        <path id="orange6"
          d="M276.434 98.696C275.696 100.083 274.984 101.325 273.966 102.133C273.714 102.333 271.983 101.257 271.807 100.528C271.581 99.597 272.227 97.517 272.523 97.512C273.792 97.489 275.071 98.045 276.434 98.696Z"
          fill="#EA6C34" />
        <path id="orange2"
          d="M180.357 128.036C180.741 129.59 181.016 131.046 180.827 132.432C180.787 132.723 178.861 133.16 178.144 132.789C177.446 132.427 176.623 130.549 176.83 130.317C177.718 129.319 178.966 128.681 180.357 128.036Z"
          fill="#EA6C34" />
      </g>
      <g id="rainbow" style="--order: 5">
        <path id="rainbow_2"
          d="M382.88 157.837C381.584 150.055 380.662 142.177 378.93 134.506C365.83 76.455 317.32 31.694 261.75 26.168C186.105 18.647 121.475 74.51 112.892 154.831C112.82 155.51 112.727 156.187 112.387 157.025C111.861 157.09 111.593 156.993 111.324 156.897C111.297 157.025 111.245 157.153 111.245 157.281C111.244 165.068 111.235 172.856 111.3 180.642C111.302 180.903 112.046 181.157 112.444 181.415C114.218 196.65 117.28 211.535 123.072 225.681C124.4 228.925 125.746 232.161 127.076 235.383C126.84 235.53 126.744 235.59 126.648 235.65C126.665 235.519 126.743 235.336 126.69 235.265C125.778 234.051 124.654 232.967 123.953 231.632C114.107 212.879 108.391 192.778 106.927 170.767C107.239 166.8 107.435 163.445 107.363 160.097C107.267 155.722 106.959 151.351 106.743 146.979C108.911 115.471 119.477 87.402 138.476 63.254C166.761 27.303 203.374 9.00199 247.397 8.48099C316.408 7.66399 376.182 61.971 387.101 134.788C392.261 169.206 386.789 201.659 370.946 232.151C370.27 233.453 369.392 234.636 368.183 235.621C376.201 218.272 380.884 200.047 382.809 180.905C383.123 181.323 383.233 181.769 383.342 182.214C383.445 182.184 383.548 182.154 383.651 182.125C383.651 173.443 383.651 164.762 383.651 156.081C383.534 156.062 383.417 156.044 383.3 156.026C383.16 156.629 383.02 157.233 382.88 157.837Z"
          fill="#26B9EF" />
        <path id="rainbow4"
          d="M112.49 181.078C112.046 181.157 111.302 180.903 111.3 180.642C111.235 172.856 111.244 165.068 111.245 157.281C111.245 157.153 111.297 157.025 111.324 156.897C111.593 156.993 111.861 157.09 112.28 157.356C112.465 165.264 112.5 173.002 112.49 181.078Z"
          fill="#00B4EF" />
        <path id="raibow3"
          d="M382.831 158.2C383.02 157.233 383.16 156.629 383.3 156.026C383.417 156.044 383.534 156.062 383.651 156.081C383.651 164.762 383.651 173.443 383.651 182.125C383.548 182.154 383.445 182.184 383.342 182.214C383.233 181.769 383.123 181.323 382.947 180.6C382.848 173.069 382.815 165.816 382.831 158.2Z"
          fill="#00B4EF" />
        <path id="rainbow2"
          d="M106.677 147.354C106.959 151.351 107.267 155.722 107.363 160.097C107.435 163.445 107.239 166.8 106.957 170.406C106.705 163.016 106.658 155.373 106.677 147.354Z"
          fill="#00B4EF" />
      </g>
      <g id="foundations">
        <path id="secondBlueN"
          d="M423.547 434.461C427.365 440.26 431.019 445.818 434.673 451.375C435.009 451.253 435.345 451.132 435.681 451.011C435.475 448.445 435.197 445.884 435.078 443.314C434.771 436.638 434.47 429.959 434.327 423.278C434.3 422.01 435.013 420.725 435.384 419.448C435.859 419.389 436.334 419.329 436.809 419.27C437.586 421.058 438.953 422.814 439.044 424.641C439.591 435.676 439.895 446.726 440.132 457.774C440.16 459.069 439.278 460.386 438.819 461.692C437.582 460.992 435.923 460.621 435.177 459.538C429.498 451.291 423.991 442.909 418.45 434.555C417.651 433.35 416.955 432.068 415.616 429.826C415.404 431.862 415.214 432.807 415.221 433.75C415.281 441.655 415.498 449.563 415.354 457.464C415.327 458.928 413.884 460.362 413.095 461.81C412.3 460.359 410.838 458.92 410.815 457.456C410.64 446.275 410.695 435.088 410.826 423.905C410.843 422.46 411.703 421.026 412.173 419.587C413.484 420.447 415.196 420.998 416.03 422.224C418.659 426.086 420.957 430.202 423.547 434.461Z"
          fill="#2EBAF0" />
        <path id="blueD"
          d="M234.199 436.378C235.333 445.171 232.402 451.683 225.639 456.159C219.929 459.937 213.628 461.488 206.906 461.294C203.856 461.205 202.602 459.819 202.665 456.481C202.832 447.628 202.862 438.767 202.689 429.915C202.664 428.592 201.251 427.3 200.484 425.991C199.973 425.12 199.028 424.208 199.089 423.383C199.146 422.62 200.185 421.494 200.96 421.304C209.212 419.282 217.534 418.516 225.484 422.365C230.818 424.948 233.17 430.108 234.199 436.378ZM225.552 428.692C220.188 423.72 213.857 424.149 207.611 424.558C207.611 435.322 207.611 445.609 207.611 457.143C212.39 455.797 216.704 455.179 220.532 453.389C230.348 448.798 232.562 438.168 225.552 428.692Z"
          fill="#27B9EF" />
        <path id="blueA"
          d="M248.226 454.132C248.971 452.348 249.578 450.842 250.286 449.089C249.69 448.666 249.003 448.34 248.532 447.801C248.047 447.244 247.323 446.244 247.502 445.859C247.836 445.143 248.806 444.21 249.414 444.283C252.659 444.673 253.174 442.197 253.921 439.859C255.737 434.169 257.449 428.437 259.471 422.831C259.996 421.378 261.508 420.328 262.567 419.093C263.531 420.384 264.881 421.523 265.392 422.992C267.438 428.883 269.132 434.913 271.192 440.798C271.567 441.869 272.957 442.694 274.044 443.29C275.579 444.131 277.269 444.653 278.893 445.312C277.631 446.577 276.369 447.843 274.594 449.623C275.595 451.86 277.127 454.69 278.107 457.722C278.588 459.212 278.045 461.075 277.965 462.768C276.602 461.757 274.777 461.05 273.971 459.67C272.289 456.789 271.318 453.444 269.694 450.516C269.073 449.397 267.517 448.361 266.295 448.226C263.761 447.946 261.119 448.015 258.616 448.494C257.235 448.758 255.549 449.838 254.87 451.085C253.338 453.899 252.508 457.137 251.056 460.011C250.464 461.184 249 461.86 247.933 462.762C247.51 461.393 246.727 460.015 246.761 458.659C246.797 457.231 247.613 455.826 248.226 454.132ZM261.431 444.627C263.176 444.248 264.922 443.869 266.76 443.471C265.325 438.322 264.106 433.948 262.541 428.334C260.828 433.816 259.393 438.102 258.266 442.478C258.152 442.919 259.895 443.899 261.431 444.627Z"
          fill="#27B9EF" />
        <path id="blueS"
          d="M473.969 456.259C477.488 453.161 477.937 450.226 474.993 447.145C472.647 444.689 469.695 442.89 467.038 440.764C464.692 438.887 462.071 437.261 460.127 434.987C457.078 431.42 457.007 426.389 459.378 422.86C461.353 419.92 465.299 418.881 469.55 420.407C471.354 421.055 473.025 422.121 474.029 422.629C475.23 421.412 476.205 420.423 477.181 419.434C477.958 420.73 479.203 421.946 479.412 423.337C479.813 426.009 479.731 428.784 479.628 431.507C479.59 432.516 478.931 433.498 478.555 434.492C477.65 433.74 476.212 433.162 475.936 432.206C474.87 428.508 472.796 425.73 469.403 424.765C467.608 424.254 464.762 424.478 463.594 425.685C461.644 427.7 462.371 430.793 464.388 432.615C467.004 434.977 469.992 436.896 472.912 438.851C476.914 441.53 480.53 444.483 481.577 449.779C482.466 454.279 480.733 458.733 476.797 460.298C469.1 463.359 457.404 461.502 454.862 449.432C454.521 447.813 455.244 445.94 455.474 444.185C456.001 444.107 456.527 444.028 457.053 443.949C457.756 445.194 458.724 446.351 459.119 447.698C461.308 455.166 466.405 458.272 473.969 456.259Z"
          fill="#27B9EF" />
        <path id="secondBlueO"
          d="M394.728 431.614C397.178 439.824 397.054 447.281 392.566 454.594C385.688 465.801 374.221 463.406 368.475 454.412C361.68 443.777 365.698 425.287 376.425 420.846C380.23 419.271 383.248 418.958 385.95 421.331C389.207 424.191 391.769 427.944 394.728 431.614ZM383.286 424.977C381.714 425.042 379.933 424.615 378.602 425.25C369.238 429.716 366.73 445.647 373.947 454.059C378.026 458.815 383.656 458.666 387.57 453.701C394.388 445.051 392.694 432.252 383.286 424.977Z"
          fill="#27B9EF" />
        <path id="blueO"
          d="M89.585 456.981C83.433 463.637 75.79 463.733 69.714 457.457C58.977 446.366 63.767 424.289 78.054 419.448C79.346 419.011 81.13 419.521 82.488 420.106C94.583 425.314 99.074 441.641 91.818 453.799C91.203 454.831 90.451 455.772 89.585 456.981ZM90.51 441.859C90.245 435.62 88.523 430.109 83.73 426.035C81.439 424.088 79.219 423.99 76.645 425.471C67.02 431.012 65.708 448.712 74.46 455.72C77.89 458.467 82.281 458.227 85.282 454.947C88.414 451.525 90.448 447.508 90.51 441.859Z"
          fill="#26B9EF" />
        <path id="blueN"
          d="M184.691 461.425C184.225 461.559 183.759 461.693 183.082 461.439C182.609 460.86 182.346 460.667 182.083 460.474C182.083 460.474 182.169 460.494 182.111 460.291C181.806 459.94 181.558 459.792 181.311 459.645C181.311 459.645 181.396 459.589 181.335 459.407C181.013 459.072 180.752 458.918 180.491 458.765C174.947 450.504 169.404 442.243 163.86 433.982C162.978 432.668 162.095 431.355 160.708 430.243C160.203 436.25 160.203 442.057 160.203 448.819C160.581 446.581 160.798 445.295 161.016 444.009C161.092 448.764 161.343 453.528 161.126 458.268C161.07 459.483 159.539 460.621 158.685 461.794C157.986 460.44 156.744 459.111 156.687 457.726C156.485 452.832 156.688 447.919 157.023 442.39C157.397 439.759 157.485 437.751 157.577 435.744C157.821 430.39 158.067 425.037 158.313 419.684C159.709 420.837 161.474 421.716 162.442 423.186C167.962 431.566 173.281 440.094 178.7 448.549C179.318 449.514 180.134 450.336 181.253 451.707C180.831 441.158 180.437 431.307 180.575 421.185C182.046 420.907 182.987 420.899 183.927 420.892C183.927 420.892 183.875 420.93 183.865 421.287C183.846 426.612 183.837 431.581 183.901 436.686C184.181 436.713 184.387 436.605 184.706 436.472C184.818 436.446 185.046 436.471 185.046 436.471C185.167 437.365 185.289 438.258 185.149 439.737C184.822 447.356 184.756 454.39 184.691 461.425Z"
          fill="#2EBAF0" />
        <path id="blueF2"
          d="M22.749 434.96C22.518 431.173 22.288 427.386 22.053 423.517C21.74 423.366 21.372 423.256 21.076 423.037C20.023 422.261 18.995 421.448 17.957 420.649C19.027 419.829 20.089 418.995 21.175 418.2C21.37 418.057 21.669 418.029 21.921 418.026C29.748 417.935 37.575 417.793 45.401 417.839C46.593 417.845 48.193 418.388 48.86 419.299C49.619 420.337 49.545 422.065 49.833 423.493C48.605 423.41 47.346 423.478 46.16 423.2C45.111 422.953 44.152 421.947 43.139 421.921C37.897 421.786 32.65 421.858 26.805 421.858C27.188 427.81 27.525 433.029 27.919 439.144C33.474 439.144 38.946 439.276 44.407 439.074C46.394 439.001 48.367 438.83 48.341 441.371C48.332 442.233 46.123 443.739 44.869 443.801C39.385 444.07 33.882 443.917 27.706 443.917C27.706 449.162 27.765 454.162 27.686 459.159C27.627 462.842 26.807 463.278 23.594 461.149C23.839 452.773 23.962 444.932 23.962 437.091C23.962 436.381 23.172 435.67 22.749 434.96Z"
          fill="#32BBF0" />
        <path id="blueU"
          d="M116.46 448.798C117.096 449.97 117.582 451.278 118.396 452.287C120.752 455.204 123.637 457.22 127.442 456.428C131.125 455.663 133.278 452.668 133.983 449.165C134.884 444.693 135.093 440.03 135.256 435.435C135.399 431.371 135.102 427.286 134.935 423.213C134.862 421.439 134.326 419.416 136.969 419.419C139.251 419.421 140.11 420.85 139.894 423.166C139.831 423.84 139.869 424.524 139.585 425.803C139.453 432.776 139.597 439.149 139.741 445.522C139.085 448.122 138.791 450.908 137.703 453.285C134.924 459.355 129.885 462.505 124.879 461.807C118.445 460.91 112.668 456.198 112.058 449.575C111.2 440.257 111.491 430.819 111.838 421.173C114.601 420.68 115.181 421.88 115.154 424.058C115.068 431.075 115.059 438.096 115.184 445.112C115.206 446.349 116.015 447.57 116.46 448.798Z"
          fill="#27B9EF" />
        <path id="blueI"
          d="M343.459 456.993C345.741 457.231 348.02 457.542 350.308 457.683C352.146 457.796 352.151 457.704 351.042 460.124C347.536 460.334 344.468 460.382 341.402 460.318C338.585 460.259 335.771 460.079 332.956 459.953C333.262 458.54 333.489 458.117 333.787 458.051C339.778 456.715 339.781 456.723 339.788 450.152C339.791 447.843 339.905 445.524 339.728 443.231C339.66 442.355 338.92 441.537 338.486 440.692C338.206 435.297 337.926 429.901 337.633 424.253C335.875 424.253 334.341 424.466 332.899 424.173C332.022 423.995 331.286 423.034 330.487 422.425C331.115 421.542 331.702 419.934 332.377 419.892C337.732 419.556 343.108 419.368 348.466 419.529C349.415 419.557 350.515 421.3 351.142 422.491C351.404 422.99 350.702 424.759 350.283 424.824C349.298 424.979 348.223 424.43 347.176 424.211C345.901 423.944 344.617 423.724 342.896 423.4C342.896 428.247 342.896 432.436 342.631 437.252C342.279 443.563 342.146 449.248 342.167 454.933C342.17 455.621 343.008 456.306 343.459 456.993Z"
          fill="#2EBAF0" />
        <path id="blueT"
          d="M315.908 423.825C312.103 423.984 308.299 424.143 303.861 424.452C303.061 425.652 302.756 426.7 302.751 427.75C302.712 436.345 302.704 444.94 302.76 453.535C302.768 454.691 303.185 455.844 303.412 456.999C303.378 457.932 303.67 459.134 303.231 459.734C302.574 460.633 301.424 461.552 300.444 461.601C299.851 461.631 298.716 460.077 298.646 459.164C298.484 457.042 298.82 454.877 299.331 452.297C299.704 447.036 299.699 442.208 299.694 437.381C299.655 436.222 299.616 435.063 299.861 433.328C299.82 430.191 299.497 427.631 299.173 425.07C295.823 424.812 292.462 424.652 289.129 424.243C287.908 424.093 286.751 423.35 285.566 422.878C286.249 421.74 286.931 420.602 287.964 419.829C289.501 420.442 290.686 420.895 291.876 420.907C298.88 420.979 305.885 421.003 312.889 420.918C314.914 420.893 316.105 421.439 315.908 423.825Z"
          fill="#32BBF0" />
        <path id="blueI3"
          d="M338.449 440.971C338.92 441.537 339.66 442.355 339.728 443.231C339.905 445.524 339.791 447.843 339.788 450.152C339.781 456.723 339.778 456.715 333.787 458.051C333.489 458.117 333.262 458.54 332.956 459.953C335.771 460.079 338.585 460.259 341.402 460.318C344.468 460.382 347.536 460.334 350.961 460.339C350.964 460.655 350.611 461.234 350.254 461.237C344.254 461.293 338.254 461.277 332.317 461.277C331.769 456.894 331.769 456.894 338.412 456.485C338.412 451.419 338.412 446.335 338.449 440.971Z"
          fill="#00B4EF" />
        <path id="blueN2"
          d="M184.969 461.269C184.756 454.39 184.822 447.356 185.112 440.078C185.556 446.185 185.802 452.535 185.959 458.888C185.977 459.623 185.496 460.371 184.969 461.269Z"
          fill="#26B9EF" />
        <path id="blueT3"
          d="M316.139 423.628C316.105 421.439 314.914 420.893 312.889 420.918C305.885 421.003 298.88 420.979 291.876 420.907C290.686 420.895 289.501 420.442 288.22 419.898C296.826 419.663 305.526 419.753 314.226 419.766C316.934 419.77 317.878 420.74 316.139 423.628Z"
          fill="#00B4EF" />
        <path id="blueU2"
          d="M116.439 448.463C116.015 447.57 115.206 446.349 115.184 445.112C115.059 438.096 115.068 431.075 115.154 424.058C115.181 421.88 114.601 420.68 112.031 420.894C112.859 420.427 114.041 419.979 116.418 419.079C116.418 429.49 116.418 438.809 116.439 448.463Z"
          fill="#00B4EF" />
        <path id="blueT2"
          d="M303.469 456.622C303.185 455.844 302.768 454.691 302.76 453.535C302.704 444.94 302.712 436.345 302.751 427.75C302.756 426.7 303.061 425.652 303.522 424.429C303.719 434.918 303.623 445.581 303.469 456.622Z"
          fill="#00B4EF" />
        <path id="blueF"
          d="M22.719 435.321C23.172 435.67 23.962 436.381 23.962 437.091C23.962 444.932 23.839 452.773 23.53 460.857C23.248 458.38 23.186 455.66 23.185 452.293C23.206 451.468 23.166 451.287 23.126 451.107C22.98 445.965 22.834 440.823 22.719 435.321Z"
          fill="#00B4EF" />
        <path id="blueI2"
          d="M343.445 456.618C343.008 456.306 342.17 455.621 342.167 454.933C342.146 449.248 342.279 443.563 342.587 437.635C343.016 443.675 343.224 449.959 343.445 456.618Z"
          fill="#00B4EF" />
        <path id="blueN4"
          d="M157.978 419.793C158.067 425.037 157.821 430.39 157.577 435.744C157.485 437.751 157.397 439.759 157.084 442.009C156.809 435.884 156.713 429.518 156.75 423.152C156.756 422.067 157.331 420.985 157.978 419.793Z"
          fill="#00B4EF" />
        <path id="blueN3"
          d="M161.071 443.66C160.798 445.295 160.581 446.581 160.203 448.819C160.203 442.057 160.203 436.25 160.439 430.208C160.825 434.419 160.976 438.865 161.071 443.66Z"
          fill="#00B4EF" />
        <path id="blueU3"
          d="M139.794 445.143C139.597 439.149 139.453 432.776 139.526 426.155C139.778 432.194 139.813 438.479 139.794 445.143Z"
          fill="#00B4EF" />
        <path id="blueN5"
          d="M185.091 436.148C185.046 436.471 184.818 436.446 184.515 436.491C184.212 436.536 183.828 436.55 183.828 436.55C183.837 431.581 183.846 426.612 183.863 421.253C184.183 423.866 184.495 426.87 184.699 430.518C184.672 432.084 184.754 433.007 184.836 433.93C184.936 434.562 185.036 435.194 185.091 436.148Z"
          fill="#00B4EF" />
      </g>
      <g id="floor" style="--order: 1">
        <path id="floor_2"
          d="M290.093 277.556C290.458 277.505 290.726 277.498 290.86 277.513C290.993 277.528 291.157 277.74 291.348 278.172C297.274 278.74 303.009 278.957 308.744 278.972C310.848 278.978 312.952 278.505 315.056 278.251C330.066 278.342 345.077 278.391 360.087 278.544C366.747 278.612 373.405 278.89 380.507 279.486C387.809 279.9 394.668 279.899 401.527 279.898C409.669 280.231 417.812 280.565 425.955 280.899C425.937 281.594 425.918 282.29 425.9 282.986C410.808 283.586 395.715 284.187 380.03 284.501C369.093 284.214 358.747 284.214 348.402 284.214C348.399 284.3 348.396 284.385 348.393 284.47C350.633 284.682 352.874 284.893 355.114 285.105C340.994 285.381 326.876 285.837 312.755 285.898C275.23 286.062 237.703 286.07 200.178 286.103C193.626 286.109 187.074 285.937 180.592 285.66C185.561 285.473 190.46 285.473 195.359 285.473C187.844 284.796 180.333 284.753 172.822 284.829C171.101 284.846 169.383 285.275 167.663 285.514C158.649 285.461 149.634 285.407 140.549 285.088C142.559 284.822 144.642 284.822 146.724 284.822C136.632 283.967 126.556 283.958 116.481 283.997C116.038 283.999 115.596 284.436 115.154 284.67C102.999 284.3 90.842 284.013 78.692 283.504C75.367 283.365 72.067 282.558 68.675 281.732C76.647 280.649 84.682 279.727 93.404 280.081C100.215 280.457 106.433 280.581 112.652 280.58C113.198 280.579 113.744 279.759 114.29 279.32C116.147 279.206 118.004 279.093 120.439 279.266C129.527 279.644 138.038 279.759 146.55 279.772C147.117 279.773 147.686 279.002 148.254 278.59C158.847 278.427 169.44 278.264 180.618 278.398C189.535 278.8 197.866 278.922 206.197 278.971C206.735 278.974 207.276 278.407 207.816 278.106C208.154 278.097 208.492 278.088 209.299 278.392C210.399 278.8 211.029 278.977 211.659 278.978C231.199 279.003 250.74 279.014 270.281 279.011C270.746 279.011 271.212 278.834 271.678 278.739C263.416 278.304 255.202 278.329 246.989 278.298C238.766 278.266 230.543 278.179 222.32 278.117C223.835 277.96 225.35 277.671 226.866 277.668C247.82 277.625 268.774 277.621 290.093 277.556Z"
          fill="#91C650" />
        <path id="floor8"
          d="M221.969 278.082C230.543 278.179 238.766 278.266 246.989 278.298C255.202 278.329 263.416 278.304 271.678 278.739C271.212 278.834 270.746 279.011 270.281 279.011C250.74 279.014 231.199 279.003 211.659 278.978C211.029 278.977 210.399 278.8 209.547 278.459C209.324 278.213 209.32 278.195 209.54 278.227C209.897 278.217 210.034 278.174 210.171 278.131C213.987 278.103 217.803 278.076 221.969 278.082Z"
          fill="#80C005" />
        <path id="floor5"
          d="M115.51 284.722C115.596 284.436 116.038 283.999 116.481 283.997C126.556 283.958 136.632 283.967 146.724 284.822C144.642 284.822 142.559 284.822 140.216 284.959C131.926 284.988 123.896 284.881 115.51 284.722Z"
          fill="#85C22D" />
        <path id="floor10"
          d="M355.451 285.165C352.874 284.893 350.633 284.682 348.393 284.47C348.396 284.385 348.399 284.3 348.402 284.214C358.747 284.214 369.093 284.214 379.669 284.446C371.863 284.86 363.825 285.043 355.451 285.165Z"
          fill="#85C22D" />
        <path id="floor4"
          d="M147.909 278.545C147.686 279.002 147.117 279.773 146.55 279.772C138.038 279.759 129.527 279.644 120.785 279.319C129.558 278.89 138.562 278.695 147.909 278.545Z"
          fill="#85C22D" />
        <path id="floor6"
          d="M168.017 285.562C169.383 285.275 171.101 284.846 172.822 284.829C180.333 284.753 187.844 284.796 195.359 285.473C190.46 285.473 185.561 285.473 180.302 285.536C176.085 285.603 172.229 285.607 168.017 285.562Z"
          fill="#80C005" />
        <path id="floor7"
          d="M207.454 278.046C207.276 278.407 206.735 278.974 206.197 278.971C197.866 278.922 189.535 278.8 180.977 278.452C189.531 278.135 198.311 278.061 207.454 278.046Z"
          fill="#85C22D" />
        <path id="floor11"
          d="M401.174 279.835C394.668 279.899 387.809 279.9 380.857 279.604C381.839 279.274 382.912 279.242 384.554 279.455C386.838 279.695 388.555 279.69 390.271 279.685C393.788 279.714 397.305 279.743 401.174 279.835Z"
          fill="#85C22D" />
        <path id="floor2"
          d="M113.972 279.262C113.744 279.759 113.198 280.579 112.652 280.58C106.433 280.581 100.215 280.457 93.765 280.135C97.061 279.789 100.589 279.674 104.791 279.685C107.124 279.656 108.782 279.502 110.441 279.348C111.512 279.3 112.583 279.252 113.972 279.262Z"
          fill="#85C22D" />
        <path id="floor9"
          d="M314.702 278.179C312.952 278.505 310.848 278.978 308.744 278.972C303.009 278.957 297.274 278.74 291.365 278.308C298.91 278.044 306.629 278.075 314.702 278.179Z"
          fill="#85C22D" />
        <path id="floor3"
          d="M110.128 279.273C108.782 279.502 107.124 279.656 105.129 279.75C106.466 279.525 108.14 279.362 110.128 279.273Z"
          fill="#91C650" />
        <path id="floor12"
          d="M389.992 279.521C388.555 279.69 386.838 279.695 384.871 279.521C386.318 279.346 388.015 279.351 389.992 279.521Z"
          fill="#91C650" />
      </g>
      <g id="early">
        <path id="earlyR"
          d="M266.441 304.454C274.532 306.489 282.188 309.462 288.129 316.027C301.473 330.77 296.339 350.45 277.786 355.612C275.81 356.162 273.758 356.457 271.723 356.709C269.859 356.94 267.971 356.951 265.468 357.095C273.736 366.685 280.718 376.868 290.527 384.045C293.192 385.995 296.454 387.278 299.618 388.125C302.168 388.807 304.597 389.014 304.479 392.538C304.365 395.937 302.696 398.591 299.45 398.692C296.451 398.786 293.256 398.229 290.434 397.129C281.441 393.623 275.221 386.214 268.919 379C263.678 373 258.666 366.749 253.129 361.077C250.698 358.587 247.212 357.26 243.34 354.871C243.83 368.338 244.286 380.302 244.69 392.268C244.845 396.86 243.579 398.72 240.294 399.024C236.859 399.341 234.609 397.402 234.321 393.728C234.128 391.282 234.103 388.822 234.271 385.739C234.54 378.5 234.54 371.889 234.54 364.344C234.061 366.333 233.813 367.36 233.566 368.387C233.441 366.182 233.317 363.977 233.461 361.159C233.825 348.022 233.948 335.499 234.008 322.975C234.053 313.592 234.017 313.592 225.299 314.553C225.299 314.553 225.334 314.38 225.306 314.227C225.02 313.94 224.761 313.806 224.502 313.672C224.502 313.672 224.701 313.655 224.684 313.297C224.602 311.119 224.536 309.299 224.471 307.479C224.471 307.479 224.576 307.436 224.761 307.448C225.064 307.182 225.183 306.903 225.301 306.625C225.301 306.625 225.237 306.716 225.565 306.735C237.151 302.691 248.669 303.026 260.264 304.382C262.301 304.62 264.381 304.441 266.441 304.454ZM243.805 340.517C244.298 342.252 242.903 344.692 245.858 345.484C255.557 348.087 265.306 349.538 275.063 346.248C284.052 343.216 286.953 334.317 281.438 326.158C279.441 323.204 276.434 320.208 273.302 319.1C266.066 316.538 258.495 315 251.008 313.311C248.855 312.825 246.522 313.236 244.355 313.236C244.037 315.327 243.815 316.794 243.352 317.829C243.232 317.198 243.111 316.568 242.99 315.937C242.891 315.945 242.793 315.953 242.694 315.961C242.694 325.203 242.694 334.446 242.694 343.688C242.791 343.7 242.887 343.713 242.984 343.725C243.172 342.445 243.36 341.166 243.805 340.517Z"
          fill="#E2249C" />
        <path id="earlyE"
          d="M51.845 308.442C43.883 308.473 35.92 308.504 27.341 308.757C26.598 316.184 26.441 323.387 26.401 330.591C26.398 331.158 27.212 331.73 27.646 332.3C27.871 334.855 28.095 337.41 28.353 340.339C30.037 340.493 31.659 340.641 33.395 341.041C32.919 341.42 32.328 341.547 31.736 341.674C31.744 341.769 31.751 341.865 31.759 341.961C40.208 341.961 48.658 341.961 57.108 341.961C57.111 341.868 57.115 341.775 57.118 341.682C56.163 341.47 55.208 341.258 54.253 341.046C61.289 340.477 68.324 339.895 75.362 339.358C76.12 339.3 77.062 339.227 77.63 339.626C79.335 340.824 81.771 341.982 82.236 343.677C82.603 345.013 80.78 347.517 79.358 348.77C78.099 349.879 76.067 350.392 74.351 350.458C60.237 351.004 46.118 351.506 31.996 351.718C28.979 351.763 28.05 352.238 28.226 355.715C28.814 367.3 28.999 378.907 29.579 391.157C37.375 391.942 44.929 392.106 52.484 392.151C53.016 392.154 53.552 391.281 54.086 390.815C55.795 390.753 57.508 390.748 59.212 390.618C66.245 390.082 73.269 389.277 80.309 389.065C83.099 388.981 86.302 390.071 86.314 393.986C86.326 397.548 83.715 399.421 80.743 399.697C73.724 400.349 66.672 400.623 59.629 400.937C48.737 401.423 37.844 401.9 26.948 402.213C20.775 402.391 19.573 401.218 18.51 394.869C18.219 393.128 18.099 391.355 18.136 388.992C18.447 377.91 18.556 367.432 18.538 356.955C18.537 356.141 17.655 355.328 17.183 354.515C17.141 353.354 17.099 352.194 17.325 350.438C17.676 341.302 17.76 332.761 17.794 324.219C17.794 324.162 17.091 324.102 16.716 324.043C16.45 319.306 16.184 314.568 15.899 309.502C15.199 309.502 14.485 309.483 13.771 309.505C10.671 309.604 8.23301 308.355 8.05201 304.868C7.88001 301.564 9.50101 298.923 12.869 298.565C18.74 297.942 24.637 297.271 30.526 297.25C45.306 297.195 60.088 297.501 74.87 297.641C77.658 297.667 80.114 298.397 80.879 301.597C81.603 304.623 80.389 306.912 77.239 308.134C70.778 307.881 64.827 307.731 58.876 307.765C56.531 307.778 54.188 308.204 51.845 308.442Z"
          fill="#24C8B8" />
        <path id="earlyA"
          d="M147.616 316.826C149.199 312.746 150.311 308.723 152.316 305.29C153.423 303.395 156.05 301.43 157.955 301.47C159.508 301.503 161.74 304.191 162.406 306.179C166.326 317.882 169.868 329.728 173.555 341.519C174.324 343.981 175.137 346.43 175.984 348.863C178.863 357.124 178.872 357.12 187.207 356.938C191.844 356.837 194.89 358.593 195.242 361.571C195.618 364.739 192.815 367.275 188.089 368.025C186.956 368.204 185.816 368.334 184.141 368.558C184.621 370.133 184.909 371.528 185.457 372.796C187.599 377.758 189.815 382.684 192.023 387.613C192.52 388.722 193.114 389.781 193.633 390.879C195.995 395.889 195.94 400.38 193.512 401.755C190.729 403.331 185.979 400.38 183.835 395.575C180.312 387.68 176.722 379.811 173.499 371.778C172.337 368.881 170.894 368 168.052 368.12C160.347 368.446 152.626 368.345 144.923 368.704C143.623 368.765 141.749 369.957 141.218 371.163C137.634 379.312 134.333 387.602 130.96 395.855C130.604 396.728 130.466 397.707 130.076 398.559C128.685 401.595 126.298 402.583 123.347 401.748C120.42 400.921 119.452 398.347 120.187 395.642C121.645 390.282 123.479 385.027 125.348 379.806C126.62 376.251 128.216 372.827 129.745 369.157C127.966 368.465 126.091 368.176 124.796 367.1C123.636 366.137 122.243 364.055 122.532 362.922C122.898 361.487 124.852 360.501 126.15 359.357C126.314 359.212 126.666 359.21 126.902 359.271C133.558 360.993 135.374 356.415 136.985 350.962C140.334 339.63 143.989 328.4 147.616 316.826ZM166.441 354.649C163.45 344.368 160.459 334.087 157.175 322.799C153.459 334.942 150.032 346.141 146.279 358.403C153.007 358.081 159.066 357.848 165.112 357.408C165.675 357.367 166.154 356.016 166.441 354.649Z"
          fill="#8FC64A" />
        <path id="earlyY"
          d="M455.607 399.042C443.111 401.234 437.274 396.769 435.46 383.903C435.137 381.609 435.024 379.282 434.685 376.992C434.273 374.205 435.054 372.417 437.905 372.178C443.307 371.725 445.233 372.886 445.493 376.656C445.644 378.832 445.631 381.055 446.078 383.165C447.41 389.447 452.646 391.19 457.147 386.792C461.722 382.32 463.996 376.377 466.153 370.159C465.143 369.472 464.322 368.867 463.46 368.337C454.268 362.689 447.227 354.907 443.214 344.402C439.058 333.526 435.221 322.513 431.289 311.541C430.933 310.547 430.738 309.419 430.748 308.356C430.783 305.02 432.495 302.969 435.507 302.342C438.531 301.713 440.226 303.297 441.279 306.329C445.016 317.088 448.748 327.855 452.798 338.482C456.168 347.322 461.633 354.358 470.82 359.119C472.72 349.341 474.517 340.026 476.341 330.718C477.939 322.568 479.552 314.421 481.19 306.281C481.95 302.5 484.468 301.96 487.385 302.96C490.218 303.931 492.622 305.544 491.794 309.46C488.557 324.775 485.324 340.091 482.068 355.401C481.701 357.131 481.006 358.806 480.828 360.548C480.716 361.638 480.951 363.148 481.609 363.883C484.946 367.604 484.249 371.951 479.516 373.089C476.326 373.856 475.277 375.806 474.08 378.505C470.141 387.388 465.674 395.86 455.607 399.042Z"
          fill="#EA6C34" />
        <path id="earlyL"
          d="M338.272 306.101C339.773 304.75 341.274 302.326 342.776 302.325C344.58 302.323 346.385 304.385 347.975 306.092C347.76 314.607 347.76 322.582 347.76 331.396C348.15 329.986 348.319 329.374 348.488 328.763C349.709 348.532 350.93 368.301 352.351 388.722C362.482 389.723 372.414 390.071 382.346 390.42C384.798 390.027 387.249 389.634 389.97 389.198C389.97 385.644 389.663 381.864 390.102 378.185C390.314 376.405 391.582 374.26 392.989 373.268C394.942 371.891 397.394 371.855 398.847 375.03C398.632 382.383 398.569 389.187 398.506 395.991C396.496 397.24 394.608 398.969 392.439 399.596C390.487 400.16 388.225 399.516 385.971 399.143C386.446 398.763 387.052 398.643 387.657 398.524C387.654 398.34 387.652 398.156 387.649 397.972C387.104 397.972 386.558 397.972 386.012 397.972C373.734 397.972 361.455 397.972 349.176 397.972C349.163 398.14 349.15 398.308 349.137 398.475C349.712 398.649 350.287 398.823 350.863 398.997C347.468 399.541 343.834 401.305 341.628 396.354C341.845 385.623 341.845 375.439 341.845 364.734C341.408 365.746 341.197 366.233 340.986 366.72C340.075 354.95 339.163 343.18 338.507 330.784C338.845 324.356 339.003 318.553 338.973 312.751C338.961 310.533 338.518 308.318 338.272 306.101Z"
          fill="#FCB82F" />
        <path id="earlyR3"
          d="M225.449 314.794C234.017 313.592 234.053 313.592 234.008 322.975C233.948 335.499 233.825 348.022 233.509 360.791C233.028 348.502 232.76 335.966 232.518 323.431C232.466 320.716 232.51 317.999 232.51 315.035C230.031 315.035 227.815 315.035 225.449 314.794Z"
          fill="#E2229C" />
        <path id="earlyR2"
          d="M266.18 304.326C264.381 304.441 262.301 304.62 260.264 304.382C248.669 303.026 237.151 302.691 225.585 306.682C228.244 305.484 231.136 303.8 234.192 303.334C244.782 301.717 255.406 301.399 266.18 304.326Z"
          fill="#E2229C" />
        <path id="earlyL6"
          d="M382.366 390.101C372.414 390.071 362.482 389.723 352.352 389.098C360.737 388.861 369.32 388.86 377.902 388.975C379.4 388.995 380.892 389.501 382.366 390.101Z"
          fill="#FBB201" />
        <path id="earlyL5"
          d="M351.204 399.032C350.287 398.823 349.712 398.649 349.137 398.475C349.15 398.308 349.163 398.14 349.176 397.972C361.455 397.972 373.734 397.972 386.012 397.972C386.558 397.972 387.104 397.972 387.649 397.972C387.652 398.156 387.654 398.34 387.657 398.524C387.052 398.643 386.446 398.763 385.639 399.016C374.14 399.123 362.842 399.096 351.204 399.032Z"
          fill="#FBB201" />
        <path id="earlyE2"
          d="M17.137 354.883C17.655 355.328 18.537 356.141 18.538 356.955C18.556 367.432 18.447 377.91 18.165 388.642C17.669 377.681 17.38 366.466 17.137 354.883Z"
          fill="#01C4B3" />
        <path id="earlyE3"
          d="M53.903 340.975C55.208 341.258 56.163 341.47 57.118 341.682C57.115 341.775 57.111 341.868 57.108 341.961C48.658 341.961 40.208 341.961 31.759 341.961C31.751 341.865 31.744 341.769 31.736 341.674C32.328 341.547 32.919 341.42 33.712 341.168C40.461 340.997 47.007 340.951 53.903 340.975Z"
          fill="#01C4B3" />
        <path id="earlyL4"
          d="M340.929 367.064C341.197 366.233 341.408 365.746 341.845 364.734C341.845 375.439 341.845 385.623 341.625 396.051C341.363 389.786 341.356 383.275 341.262 376.766C341.217 373.645 341.007 370.527 340.929 367.064Z"
          fill="#FBB201" />
        <path id="earlyE4"
          d="M53.823 390.779C53.552 391.281 53.016 392.154 52.484 392.151C44.929 392.106 37.375 391.942 29.63 391.524C35.794 391.195 42.147 391.149 49.13 391.246C50.682 391.241 51.606 391.093 52.53 390.946C52.873 390.878 53.217 390.811 53.823 390.779Z"
          fill="#01C4B3" />
        <path id="earlyE5"
          d="M52.2 308.499C54.188 308.204 56.531 307.778 58.876 307.765C64.827 307.731 70.778 307.881 76.973 308.168C68.996 308.437 60.776 308.496 52.2 308.499Z"
          fill="#01C4B3" />
        <path id="earlyR4"
          d="M233.518 368.703C233.813 367.36 234.061 366.333 234.54 364.344C234.54 371.889 234.54 378.5 234.334 385.364C233.952 381.197 233.776 376.775 233.722 371.926C233.911 371.241 233.832 371.048 233.605 370.92C233.56 370.286 233.515 369.652 233.518 368.703Z"
          fill="#E00196" />
        <path id="earlyL2"
          d="M348.531 328.404C348.319 329.374 348.15 329.986 347.76 331.396C347.76 322.582 347.76 314.607 347.976 306.385C348.32 313.44 348.447 320.742 348.531 328.404Z"
          fill="#FBB201" />
        <path id="earlyL3"
          d="M338.189 306.477C338.518 308.318 338.961 310.533 338.973 312.751C339.003 318.553 338.845 324.356 338.546 330.406C338.256 322.72 338.181 314.786 338.189 306.477Z"
          fill="#FBB201" />
        <path id="earlyR5"
          d="M243.438 322.818C243.462 326.219 243.485 329.621 243.411 333.546C243.299 334.305 243.361 334.515 243.501 334.699C243.567 336.182 243.633 337.665 243.624 339.517C243.36 341.166 243.172 342.445 242.984 343.725C242.887 343.713 242.791 343.7 242.694 343.688C242.694 334.446 242.694 325.203 242.694 315.961C242.793 315.953 242.891 315.945 242.99 315.937C243.111 316.568 243.232 317.198 243.472 318.045C243.626 319.204 243.661 320.148 243.53 321.595C243.304 322.349 243.329 322.588 243.438 322.818Z"
          fill="#E00196" />
        <path id="earlyR6"
          d="M243.556 322.662C243.329 322.588 243.304 322.349 243.445 321.938C243.739 321.983 243.789 322.226 243.556 322.662Z"
          fill="#E2249C" />
        <path id="earlyR7"
          d="M243.595 334.544C243.361 334.515 243.299 334.305 243.357 333.906C243.608 333.9 243.705 334.116 243.595 334.544Z"
          fill="#E2249C" />
        <path id="earlyR8"
          d="M183.901 436.686C183.828 436.55 184.212 436.536 184.403 436.517C184.387 436.605 184.181 436.713 183.901 436.686Z"
          fill="#26B9EF" />
        <path id="earlyE6"
          d="M27.691 331.971C27.212 331.73 26.398 331.158 26.401 330.591C26.441 323.387 26.598 316.184 26.989 308.775C27.3 313.682 27.346 318.793 27.257 324.591C27.262 326.521 27.403 327.764 27.543 329.008C27.607 329.886 27.671 330.764 27.691 331.971Z"
          fill="#01C4B3" />
        <path id="earlyE7"
          d="M16.639 324.403C17.091 324.102 17.794 324.162 17.794 324.219C17.76 332.761 17.676 341.302 17.381 350.094C17.071 345.196 16.972 340.048 16.98 334.19C16.997 331.784 16.908 330.086 16.819 328.389C16.733 327.18 16.647 325.971 16.639 324.403Z"
          fill="#01C4B3" />
      </g>
    </g>
  </svg>