<?xml version="1.0" standalone="no"?>
<!DOCTYPE svg PUBLIC "-//W3C//DTD SVG 20010904//EN"
 "http://www.w3.org/TR/2001/REC-SVG-20010904/DTD/svg10.dtd">
<svg version="1.0" xmlns="http://www.w3.org/2000/svg"
 width="260.000000pt" height="260.000000pt" viewBox="0 0 260.000000 260.000000"
 preserveAspectRatio="xMidYMid meet">

<g transform="translate(0.000000,260.000000) scale(0.100000,-0.100000)"
fill="#667517" stroke="none">
<path d="M1205 2594 c-88 -9 -234 -38 -305 -61 -456 -149 -786 -529 -876
-1008 -23 -119 -23 -331 0 -450 79 -419 335 -757 711 -940 184 -89 356 -128
565 -128 633 0 1158 439 1276 1068 23 119 23 331 0 450 -79 419 -335 758 -711
940 -115 55 -196 82 -315 105 -97 19 -273 31 -345 24z m300 -273 c207 -43 367
-130 520 -286 151 -152 244 -327 282 -529 22 -115 13 -342 -17 -451 -79 -289
-289 -537 -566 -667 -147 -68 -214 -82 -419 -82 -201 -1 -251 8 -403 72 -232
97 -447 311 -542 539 -54 129 -72 215 -77 368 -4 114 -1 158 15 235 83 403
393 716 792 801 116 24 298 24 415 0z"/>
<path d="M1155 2276 c-226 -38 -399 -129 -555 -292 -126 -132 -208 -285 -246
-459 -26 -118 -24 -314 4 -429 95 -384 399 -668 785 -731 116 -19 198 -19 314
0 411 67 731 387 798 798 19 116 19 198 0 314 -62 383 -350 693 -727 783 -109
26 -271 33 -373 16z m92 -95 c0 -29 10 -68 22 -94 11 -24 21 -46 21 -49 0 -9
-60 -28 -87 -28 -22 0 -23 3 -18 34 4 18 2 36 -3 40 -5 3 -12 -12 -16 -34 -8
-54 -24 -59 -57 -19 -23 27 -29 30 -29 15 0 -10 8 -25 18 -32 16 -13 16 -15
-2 -29 -26 -19 -76 -20 -76 -1 0 8 4 17 9 20 13 9 -10 109 -31 132 -19 22 -19
22 3 38 34 24 62 20 94 -14 16 -16 32 -30 36 -30 5 0 13 18 19 40 12 43 31 59
71 60 24 0 25 -3 26 -49z m260 24 c27 -18 31 -66 8 -85 -12 -10 -12 -15 0 -34
8 -12 16 -37 17 -56 3 -31 0 -35 -24 -38 -43 -5 -67 14 -74 58 -4 22 -11 40
-17 40 -6 0 -7 -16 -3 -40 l6 -40 -43 0 c-24 0 -52 6 -62 14 -19 14 -19 14 0
36 15 17 19 36 20 97 l0 76 74 -7 c41 -3 85 -13 98 -21z m223 -70 c83 -43 93
-147 18 -199 -50 -35 -145 -5 -175 54 -50 99 56 197 157 145z m-814 -26 c1
-31 44 -100 75 -121 l24 -16 -20 -22 c-46 -52 -111 -63 -100 -18 6 28 -47 118
-70 118 -31 0 -15 39 28 64 49 30 62 29 63 -5z m1034 -135 c41 -37 51 -69 28
-92 -21 -21 -37 -13 -46 20 -4 17 -14 34 -21 36 -8 3 -5 -11 9 -38 18 -36 20
-46 10 -70 -23 -56 -92 -58 -145 -4 -38 38 -44 67 -19 102 18 26 34 20 34 -13
0 -34 10 -55 26 -55 12 0 12 5 -1 30 -21 40 -19 76 5 100 31 31 74 26 120 -16z
m-1198 9 c10 -9 18 -24 18 -34 0 -12 5 -16 15 -13 8 4 26 -1 40 -10 14 -9 30
-14 35 -11 18 11 22 -25 6 -49 -21 -33 -49 -40 -85 -22 -35 19 -45 20 -36 5 4
-5 18 -14 31 -19 32 -13 30 -26 -11 -67 -37 -37 -58 -39 -63 -5 -4 24 -85 102
-107 102 -28 0 -15 30 38 85 57 59 86 68 119 38z m703 -48 c230 -58 413 -237
470 -460 19 -72 21 -220 5 -303 -7 -34 -29 -95 -49 -137 -27 -54 -33 -74 -22
-70 25 7 204 45 214 45 5 0 -5 -16 -22 -35 -38 -44 -39 -61 -4 -97 14 -15 25
-30 22 -32 -2 -2 -69 4 -148 14 l-144 18 -56 -47 c-66 -56 -124 -90 -206 -121
-76 -28 -236 -38 -327 -21 -94 19 -218 81 -282 141 l-55 52 -80 1 c-45 1 -81
1 -81 1 0 -1 7 -15 15 -30 8 -16 15 -38 15 -48 0 -18 -3 -17 -27 6 -33 32
-149 88 -180 88 -43 0 -32 19 17 29 64 14 106 35 147 74 41 39 53 28 25 -22
l-22 -39 37 -5 c21 -3 48 -5 60 -4 21 1 22 3 7 22 -27 37 -81 159 -95 215 -22
93 -15 242 15 337 32 101 105 213 184 283 63 56 186 122 272 144 73 19 221 20
295 1z m652 -164 c45 -77 48 -105 13 -116 -29 -9 -40 2 -34 33 7 36 -16 59
-43 43 -17 -10 -15 -12 16 -15 38 -3 11 -51 -35 -62 -31 -8 -57 12 -34 26 18
11 8 22 -14 14 -32 -12 -5 -64 34 -64 10 0 22 -5 26 -12 10 -15 -24 -38 -55
-38 -22 0 -33 12 -68 79 -24 44 -43 84 -43 90 0 6 15 11 33 11 39 0 127 52
127 76 0 35 36 5 77 -65z m-1499 26 c23 -22 28 -56 12 -87 -11 -20 9 -34 35
-24 37 15 25 -65 -17 -103 -19 -17 -20 -17 -29 0 -14 23 -105 69 -132 65 -33
-5 -32 23 2 95 41 87 76 101 129 54z m1515 -279 c40 -48 5 -128 -58 -128 -60
0 -102 81 -65 126 33 38 91 40 123 2z m-343 -793 c17 -20 7 -29 -33 -29 -23
-1 -33 -6 -35 -20 -3 -16 0 -18 22 -12 14 3 37 9 50 12 47 11 76 -55 39 -89
-27 -24 -65 -30 -87 -14 -11 8 -16 19 -12 26 6 9 11 9 22 0 19 -16 64 4 64 27
0 14 -6 15 -37 9 -21 -4 -47 -7 -57 -6 -42 0 -49 60 -10 90 32 25 57 27 74 6z
m-870 -15 c24 -24 27 -70 5 -70 -9 0 -15 9 -15 24 0 16 -7 27 -20 31 -33 10
-44 -4 -22 -29 36 -39 43 -61 26 -84 -19 -28 -54 -28 -88 -1 -29 23 -37 79
-11 79 9 0 15 -9 15 -23 0 -28 17 -47 42 -47 25 0 23 15 -8 56 -23 30 -25 38
-16 59 15 32 63 34 92 5z m137 -72 c23 -21 32 -68 14 -68 -6 0 -16 12 -23 28
-24 49 -79 35 -94 -24 -11 -45 32 -69 76 -42 27 17 37 2 15 -22 -27 -30 -78
-27 -104 6 -25 32 -26 55 -6 94 28 53 82 66 122 28z m568 -48 c16 -33 30 -60
32 -60 2 0 18 7 35 16 25 13 32 14 39 2 6 -9 -4 -19 -34 -35 -23 -12 -46 -22
-50 -23 -11 0 -77 141 -71 152 11 17 21 6 49 -52z m-490 -4 c-6 -29 -4 -34 17
-39 39 -11 46 -8 53 23 6 29 19 38 29 22 6 -10 -23 -144 -34 -156 -17 -18 -29
4 -19 36 10 37 12 34 -28 43 -29 6 -33 4 -39 -22 -9 -38 -13 -43 -28 -37 -19
7 20 164 41 164 10 0 12 -8 8 -34z m424 8 c12 -15 21 -41 21 -59 0 -78 -93
-117 -139 -59 -28 36 -27 91 1 121 31 33 90 32 117 -3z m-178 -23 c37 -37 38
-79 3 -120 -31 -37 -69 -41 -108 -10 -44 34 -33 129 17 149 38 15 58 11 88
-19z"/>
<path d="M1426 2173 c-9 -9 -7 -33 3 -33 12 0 22 28 12 34 -5 3 -11 3 -15 -1z"/>
<path d="M1660 2071 c-5 -11 -10 -36 -10 -55 0 -29 4 -36 19 -36 20 0 41 44
41 86 0 30 -35 33 -50 5z"/>
<path d="M676 1922 c-7 -12 22 -38 31 -28 4 3 0 14 -9 22 -9 10 -18 12 -22 6z"/>
<path d="M1164 1901 c-375 -102 -563 -496 -402 -842 19 -41 47 -87 62 -103
l28 -29 131 6 c72 4 134 10 138 14 5 5 11 44 15 89 8 93 -9 165 -53 230 -88
129 -93 139 -93 173 0 47 29 93 81 131 33 23 37 30 22 30 -31 0 -36 28 -13 72
25 48 25 46 -7 50 -37 4 -40 24 -5 42 21 11 29 21 26 33 -2 10 0 24 4 31 9 14
82 27 82 14 0 -4 12 -8 27 -9 15 0 29 -6 31 -12 2 -6 9 -11 15 -11 7 0 17 -11
23 -25 14 -29 -4 -50 -36 -42 -25 6 -25 6 -1 -35 17 -29 63 -162 89 -258 9
-30 10 -23 11 51 1 104 20 165 66 209 28 27 42 33 77 33 79 0 162 -61 208
-151 11 -24 37 -89 57 -145 19 -56 50 -124 69 -153 32 -48 42 -74 28 -74 -14
0 -84 57 -100 82 -10 15 -20 25 -22 23 -3 -2 12 -27 32 -55 20 -27 36 -52 36
-55 0 -17 -37 1 -78 37 -26 23 -41 36 -34 28 14 -17 16 -40 2 -40 -5 0 -25 14
-44 30 -29 26 -33 27 -29 10 6 -22 -15 -28 -34 -9 -8 8 -11 6 -10 -7 1 -13 -4
-18 -15 -16 -11 2 -18 -3 -18 -13 0 -8 -7 -15 -15 -15 -8 0 -14 -6 -13 -12 2
-7 -3 -12 -9 -10 -7 1 -13 -2 -13 -8 0 -16 -33 -49 -43 -43 -5 3 -13 0 -18 -8
-6 -11 -11 -10 -27 4 -18 16 -20 16 -34 0 -29 -33 -30 -62 -9 -133 l22 -70
192 1 c106 1 203 4 217 8 31 9 93 121 116 211 21 83 21 226 0 309 -50 195
-209 360 -406 422 -96 30 -236 34 -326 10z"/>
<path d="M1210 1130 c-10 -18 -40 -155 -40 -181 0 -5 36 -9 80 -9 l80 0 -33
91 c-36 103 -67 137 -87 99z"/>
<path d="M922 853 c35 -36 136 -91 218 -119 84 -29 273 -26 360 5 67 23 152
72 205 115 l30 25 -422 3 -422 3 31 -32z"/>
<path d="M540 1725 c33 -19 46 -19 30 0 -7 8 -22 15 -34 15 -20 -1 -20 -2 4
-15z"/>
<path d="M2029 1509 l-24 -20 30 7 c61 14 70 11 73 -23 3 -32 -3 -38 -34 -34
-6 1 -17 -6 -24 -14 -11 -13 -9 -15 12 -15 30 0 54 18 63 47 4 17 -1 29 -19
48 -30 30 -47 31 -77 4z"/>
<path d="M2000 1469 c0 -8 6 -23 13 -32 11 -15 13 -14 25 10 8 19 8 23 0 15
-9 -9 -14 -7 -24 6 -11 15 -13 15 -14 1z"/>
<path d="M2078 1473 c7 -3 16 -2 19 1 4 3 -2 6 -13 5 -11 0 -14 -3 -6 -6z"/>
<path d="M1452 578 c-17 -17 -15 -64 4 -82 18 -19 55 -21 72 -4 18 18 14 63
-6 81 -22 20 -53 22 -70 5z"/>
<path d="M1282 548 c-17 -17 -15 -64 4 -83 39 -39 100 17 76 69 -13 28 -58 36
-80 14z"/>
</g>
</svg>
